<svg xmlns="http://www.w3.org/2000/svg" viewBox="0 -0.5 64 64" shape-rendering="crispEdges">
<path stroke="#76c945" d="M16 7h2M14 8h6M30 8h4M16 9h2M28 9h1M30 9h1M34 9h2M14 10h2M18 10h2M26 10h1M28 10h2M36 10h2M16 11h2M24 11h3M28 11h4M38 11h2M22 12h8M31 12h2M40 12h2M20 13h6M28 13h2M34 13h2M42 13h1M18 14h10M36 14h2M44 14h2M18 15h2M21 15h5M38 15h2M46 15h2M14 16h2M18 16h6M40 16h2M48 16h2M12 17h2M15 17h1M18 17h4M42 17h2M50 17h2M12 18h8M44 18h2M14 19h4M46 19h2M30 21h4M29 22h7M26 23h2M29 23h8M24 24h2M28 24h5M34 24h2M37 24h3M22 25h1M24 25h7M32 25h6M39 25h3M22 26h3M26 26h5M32 26h1M34 26h2M37 26h5M24 27h7M32 27h7M26 28h12M28 29h8M30 30h4M14 40h4M46 40h4M12 41h3M16 41h4M44 41h8M12 42h1M14 42h8M42 42h5M48 42h1M50 42h2M14 43h10M40 43h10M16 44h3M20 44h6M38 44h3M42 44h6M18 45h4M23 45h5M36 45h7M44 45h2M20 46h10M34 46h10M23 47h8M32 47h10M24 48h2M27 48h2M30 48h5M36 48h1M38 48h2M26 49h12M28 50h8M30 51h1M32 51h2" />
<path stroke="#77c945" d="M13 9h1M31 9h1M43 13h1M28 23h1M33 26h1M49 42h1M22 45h1M22 47h1" />
<path stroke="#22a831" d="M14 9h2M18 9h2M16 10h2M30 13h2M28 14h2M26 15h2M24 16h2M22 17h2M20 18h2M52 18h1M18 19h2M16 20h2M42 26h1M40 27h2M38 28h2M36 29h2M34 30h2M32 31h2M52 42h1M50 43h2M48 44h2M46 45h2M44 46h2M42 47h2M40 48h2M38 49h2M36 50h2M34 51h2M32 52h2" />
<path stroke="#76c944" d="M20 9h1M27 10h1M28 22h1M39 27h1M41 44h1M43 45h1M37 48h1M31 51h1" />
<path stroke="#ffc600" d="M29 9h1M27 11h1M30 12h1M26 13h1M14 17h1" />
<path stroke="#01a2ff" d="M32 9h1M35 10h1M38 14h1" />
<path stroke="#00a2ff" d="M33 9h1M30 10h2M32 11h2M36 11h2M34 12h2M38 12h2M36 13h2M40 13h2M39 14h1M42 14h2M41 15h1M44 15h2M42 16h2M46 16h2M44 17h2M48 17h2M46 18h2M51 18h1M48 19h2M51 19h2M48 20h1M50 20h1M52 20h1M49 21h1M51 22h1M37 23h1M26 24h1M49 24h1M23 25h1M38 25h1M25 26h1M36 26h1" />
<path stroke="#147f2b" d="M13 10h1M20 10h1M14 11h2M18 11h2M16 12h2M32 13h2M30 14h2M34 14h2M28 15h1M30 15h2M36 15h2M26 16h3M30 16h1M38 16h1M24 17h1M26 17h1M40 17h2M11 18h1M22 18h3M27 18h1M42 18h2M12 19h2M20 19h2M23 19h1M44 19h2M14 20h2M19 20h2M46 20h2M16 21h3M20 21h1M17 22h1M17 23h1M21 26h1M22 27h2M42 27h1M24 28h2M40 28h2M26 29h2M38 29h3M28 30h2M36 30h4M41 30h1M30 31h2M34 31h4M39 31h1M32 32h3M36 32h1M32 33h3M36 33h1M32 34h1M34 34h1M11 42h1M12 43h2M52 43h1M14 44h2M50 44h1M52 44h1M16 45h2M48 45h1M50 45h1M18 46h2M46 46h1M48 46h1M20 47h2M44 47h3M48 47h1M23 48h1M42 48h1M44 48h2M24 49h2M40 49h1M42 49h1M45 49h1M26 50h2M39 50h1M28 51h2M36 51h2M39 51h1M30 52h2M34 52h2M37 52h1M32 53h4M32 54h1M34 54h1M32 55h1" />
<path stroke="#0080ff" d="M32 10h2M34 11h2M36 12h2M38 13h2M40 14h1M42 15h1M44 16h2M46 17h2M48 18h2" />
<path stroke="#00a3ff" d="M34 10h1M50 18h1" />
<path stroke="#76c845" d="M33 12h1M27 13h1M20 15h1M27 24h1M33 24h1M36 24h1M31 25h1M31 26h1M31 27h1" />
<path stroke="#5e3731" d="M16 13h1M14 24h1M21 35h2M23 38h1M26 39h1M29 40h1M24 53h1" />
<path stroke="#88492b" d="M17 13h1M20 22h1M38 31h1M40 38h1M34 41h1M50 47h1M43 49h1M46 49h1" />
<path stroke="#5e3631" d="M16 14h1M16 15h1M32 15h1M16 16h1M32 16h4M16 17h1M32 17h6M34 18h5M41 18h1M36 19h3M40 19h2M11 20h1M38 20h4M11 21h2M40 21h3M45 21h1M11 22h2M15 22h1M42 22h1M44 22h2M12 23h2M15 23h1M44 23h2M47 23h1M15 24h1M46 24h2M21 28h1M21 29h1M23 29h1M21 30h1M23 30h1M21 31h4M26 31h1M21 32h6M21 33h7M29 33h1M22 34h2M25 34h6M23 35h8M21 36h11M21 37h11M21 38h2M24 38h8M22 39h4M27 39h5M24 40h5M30 40h2M26 41h6M28 42h4M30 43h2M12 45h1M11 46h2M15 46h1M12 47h2M15 47h2M14 48h3M18 48h1M16 49h1M18 49h2M23 49h1M18 50h2M23 50h1M20 51h1M22 51h3M23 52h2M26 52h1M25 53h2M28 53h1M26 54h3M30 54h1M28 55h4M30 56h2" />
<path stroke="#88492a" d="M17 14h1M17 15h1M29 15h1M17 16h1M29 16h1M31 16h1M17 17h1M25 17h1M28 17h4M25 18h2M28 18h2M22 19h1M24 19h2M27 19h1M21 20h5M19 21h1M21 21h3M16 22h1M18 22h2M21 22h1M16 23h1M18 23h2M16 24h2M42 29h1M40 30h1M42 30h1M40 31h3M35 32h1M37 32h6M35 33h1M37 33h6M33 34h1M35 34h8M32 35h11M32 36h11M32 37h11M32 38h8M41 38h2M32 39h3M36 39h6M32 40h8M32 41h2M35 41h3M32 42h4M32 43h2M51 44h1M49 45h1M51 45h2M49 46h4M47 47h1M49 47h1M51 47h1M43 48h1M46 48h4M41 49h1M44 49h1M47 49h1M41 50h5M38 51h1M40 51h4M36 52h1M38 52h4M36 53h3M33 54h1M35 54h3M34 55h2M32 56h2" />
<path stroke="#00552b" d="M32 14h2M33 15h3M36 16h2M38 17h2M39 18h2M11 19h1M39 19h1M42 19h2M12 20h2M42 20h4M13 21h3M43 21h2M46 21h2M13 22h2M46 22h2M14 23h1M46 23h1M21 27h1M22 28h2M22 29h1M24 29h2M22 30h1M24 30h1M26 30h2M25 31h1M28 31h2M27 32h5M28 33h1M30 33h2M31 34h1M31 35h1M11 43h1M11 44h2M11 45h1M13 45h2M14 46h1M16 46h2M14 47h1M17 47h3M17 48h1M19 48h3M17 49h1M20 49h1M22 49h1M20 50h2M24 50h2M21 51h1M25 51h3M25 52h1M27 52h3M29 53h3M29 54h1M31 54h1" />
<path stroke="#0080fe" d="M41 14h1" />
<path stroke="#00a2fe" d="M40 15h1M49 22h1" />
<path stroke="#0081ff" d="M43 15h1" />
<path stroke="#147e2b" d="M39 16h1" />
<path stroke="#147f2a" d="M27 17h1M42 28h1M47 46h1M22 48h1M38 50h1" />
<path stroke="#89492a" d="M26 19h1M35 39h1M40 50h1M39 53h1M33 55h1" />
<path stroke="#4dbeff" d="M50 19h1M49 20h1M51 20h1M51 21h1M48 22h1M50 22h1M48 23h1M50 23h2M49 25h1M51 25h1M49 27h1" />
<path stroke="#157f2b" d="M18 20h1M41 29h1" />
<path stroke="#b0e2ff" d="M48 21h1M50 21h1M52 21h1M49 23h1M48 24h1M51 24h1" />
<path stroke="#01552b" d="M43 22h1M15 45h1" />
<path stroke="#00552a" d="M25 30h1M13 44h1M21 49h1" />
<path stroke="#00542b" d="M27 31h1M27 53h1" />
<path stroke="#5e3630" d="M21 34h1M22 50h1M22 52h1" />
<path stroke="#5f3631" d="M24 34h1M13 46h1" />
<path stroke="#ff003d" d="M15 41h1M13 42h1M47 42h1M19 44h1M31 47h1M35 48h1" />
<path stroke="#ff003c" d="M26 48h1" />
<path stroke="#77c844" d="M29 48h1" />
</svg>