<svg xmlns="http://www.w3.org/2000/svg" viewBox="0 -0.5 64 64" shape-rendering="crispEdges"><path stroke="#76c945" d="M30 8h4M28 9h3M34 9h2M26 10h4M36 10h2M24 11h8M38 11h1M23 12h7M31 12h3M40 12h2M20 13h1M22 13h8M34 13h2M42 13h2M18 14h10M36 14h2M44 14h2M16 15h10M38 15h1M46 15h2M14 16h2M17 16h7M40 16h1M48 16h2M12 17h10M42 17h2M50 17h2M13 18h7M44 18h2M14 19h2M17 19h1M46 19h1M30 21h4M28 22h8M26 23h7M34 23h4M24 24h16M23 25h19M22 26h20M24 27h16M26 28h5M32 28h6M28 29h8M30 30h4M14 40h4M48 40h2M12 41h8M44 41h8M12 42h10M42 42h8M51 42h1M14 43h10M40 43h10M16 44h10M38 44h5M44 44h4M19 45h9M36 45h10M20 46h9M34 46h10M22 47h20M24 48h5M30 48h10M26 49h12M28 50h8M30 51h4" /><path stroke="#76c944" d="M31 9h1M39 11h1M21 13h1M39 15h1M12 18h1M22 25h1M46 40h2M29 46h1M29 48h1" /><path stroke="#00a2ff" d="M32 9h2M30 10h1M34 10h2M32 11h2M36 11h2M34 12h2M38 12h2M36 13h2M40 13h2M38 14h2M42 14h1M40 15h2M44 15h2M42 16h2M46 16h2M44 17h2M48 17h2M46 18h2M50 18h2M48 19h2M49 27h1" /><path stroke="#00a2fe" d="M31 10h1" /><path stroke="#0080ff" d="M32 10h2M34 11h2M36 12h2M38 13h2M41 14h1M43 15h1M44 16h2M46 17h2M48 18h2" /><path stroke="#76c845" d="M22 12h1M30 12h1M16 16h1M16 19h1M31 28h1M43 44h1" /><path stroke="#22a831" d="M30 13h2M28 14h2M26 15h2M25 16h1M22 17h2M20 18h2M18 19h2M16 20h2M42 26h1M40 27h2M38 28h2M36 29h2M34 30h2M32 31h2M52 42h1M50 43h2M49 44h1M46 45h2M44 46h2M42 47h2M41 48h1M38 49h2M36 50h2M34 51h2M32 52h2" /><path stroke="#147f2b" d="M32 13h2M30 14h2M34 14h2M28 15h1M30 15h2M36 15h2M26 16h3M30 16h1M38 16h2M24 17h1M26 17h2M40 17h2M11 18h1M22 18h3M27 18h1M42 18h2M12 19h2M20 19h2M23 19h1M44 19h2M14 20h2M18 20h3M46 20h1M16 21h3M20 21h1M17 22h1M17 23h1M22 27h2M42 27h1M24 28h2M40 28h3M26 29h2M38 29h4M28 30h2M36 30h4M41 30h1M30 31h2M34 31h4M32 32h3M36 32h1M32 33h1M34 33h1M36 33h1M32 34h1M34 34h1M11 42h1M12 43h2M52 43h1M14 44h2M50 44h1M52 44h1M16 45h2M48 45h1M50 45h1M18 46h2M46 46h3M21 47h1M46 47h1M48 47h1M22 48h2M42 48h1M44 48h2M24 49h2M40 49h1M45 49h1M27 50h1M39 50h1M29 51h1M36 51h2M39 51h1M30 52h2M34 52h2M37 52h1M32 53h4M32 54h1M34 54h1M32 55h1" /><path stroke="#00552b" d="M32 14h2M34 15h2M36 16h2M38 17h2M39 18h2M11 19h1M39 19h1M42 19h2M12 20h2M42 20h4M13 21h1M15 21h1M43 21h2M46 21h2M13 22h2M43 22h1M46 22h2M14 23h1M46 23h1M21 27h1M22 28h2M24 29h2M22 30h1M24 30h4M27 31h3M27 32h4M28 33h1M30 33h2M31 35h1M11 43h1M11 44h3M11 45h1M13 45h3M14 46h1M16 46h2M14 47h1M17 47h3M17 48h1M19 48h1M21 48h1M17 49h1M20 49h3M20 50h2M25 50h1M21 51h1M25 51h3M25 52h1M27 52h3M27 53h1M29 53h3M29 54h1M31 54h1" /><path stroke="#0081ff" d="M40 14h1M42 15h1" /><path stroke="#01a2ff" d="M43 14h1" /><path stroke="#88492a" d="M29 15h1M29 16h1M31 16h1M25 17h1M29 17h1M31 17h1M25 18h2M28 18h2M22 19h1M24 19h4M21 20h1M24 20h2M19 21h1M21 21h3M16 22h1M18 22h4M16 23h1M18 23h2M16 24h2M42 29h1M42 30h1M38 31h1M40 31h1M42 31h1M35 32h1M37 32h6M35 33h1M37 33h6M33 34h1M35 34h8M32 35h11M32 36h1M34 36h9M32 37h11M32 38h11M32 39h10M32 40h8M33 41h1M35 41h3M32 42h4M32 43h2M51 44h1M49 45h1M51 45h2M49 46h4M47 47h1M49 47h2M43 48h1M46 48h4M41 49h1M43 49h2M46 49h2M40 50h6M38 51h1M40 51h4M36 52h1M38 52h4M36 53h4M33 54h1M35 54h3M33 55h3M32 56h2" /><path stroke="#5e3631" d="M32 15h1M32 16h4M32 17h4M37 17h1M34 18h5M41 18h1M36 19h3M40 19h2M11 20h1M38 20h4M11 21h2M40 21h3M45 21h1M11 22h2M15 22h1M42 22h1M44 22h2M12 23h2M15 23h1M44 23h2M47 23h1M15 24h1M46 24h2M21 28h1M21 29h1M23 29h1M21 30h1M23 30h1M21 31h4M26 31h1M21 32h6M21 33h7M29 33h1M21 34h2M24 34h7M22 35h9M21 36h4M26 36h6M21 37h6M28 37h4M21 38h11M22 39h8M24 40h5M30 40h2M27 41h5M28 42h1M30 42h2M30 43h2M12 45h1M11 46h3M12 47h2M15 47h2M14 48h1M16 48h1M18 48h1M16 49h1M18 49h2M23 49h1M18 50h2M22 50h2M20 51h1M22 51h3M22 52h3M26 52h1M24 53h1M26 53h1M28 53h1M26 54h3M30 54h1M28 55h3M30 56h2" /><path stroke="#00542b" d="M33 15h1" /><path stroke="#23a831" d="M24 16h1" /><path stroke="#77c945" d="M41 16h1M47 19h1M33 23h1M50 42h1M18 45h1" /><path stroke="#89492a" d="M28 17h1M22 20h1M40 30h1M51 47h1" /><path stroke="#88482a" d="M30 17h1M32 41h1M34 41h1" /><path stroke="#5e3630" d="M36 17h1M23 34h1M25 36h1M27 37h1M26 41h1M25 53h1M31 55h1" /><path stroke="#4dbeff" d="M52 18h1M50 19h3M48 20h5M48 21h5M48 22h4M48 23h4M48 24h2M49 25h1M51 25h1" /><path stroke="#88482b" d="M23 20h1" /><path stroke="#147f2a" d="M47 20h1M45 47h1M42 49h1" /><path stroke="#01552b" d="M14 21h1M22 29h1M25 31h1M31 32h1M31 34h1M20 48h1M24 50h1" /><path stroke="#5e3731" d="M14 24h1M21 35h1M29 40h1M15 48h1" /><path stroke="#4dbefe" d="M51 24h1" /><path stroke="#147e2b" d="M21 26h1M39 31h1M44 47h1M26 50h1M28 51h1" /><path stroke="#88492b" d="M41 31h1M33 36h1" /><path stroke="#157f2b" d="M33 33h1M20 47h1M38 50h1" /><path stroke="#5f3631" d="M30 39h2M29 42h1M15 46h1" /><path stroke="#22a931" d="M48 44h1" /><path stroke="#22a830" d="M40 48h1" /></svg>