<svg xmlns="http://www.w3.org/2000/svg" shape-rendering="crispEdges" viewBox="0 -0.5 512 512"><path stroke="#76c945" d="M240 64h32m-32 1h32m-32 1h32m-32 1h32m-32 1h32m-32 1h32m-32 1h32m-32 1h32m-48 1h32m16 0h16m-64 1h32m16 0h16m-64 1h32m16 0h16m-64 1h32m16 0h16m-64 1h32m16 0h16m-64 1h32m16 0h16m-64 1h32m16 0h16m-64 1h32m16 0h16m-80 1h32m48 0h16m-96 1h32m48 0h16m-96 1h32m48 0h16m-96 1h32m48 0h16m-96 1h32m48 0h16m-96 1h32m48 0h16m-96 1h32m48 0h16m-96 1h32m48 0h16m-112 1h64m48 0h16m-128 1h64m48 0h16m-128 1h64m48 0h16m-128 1h64m48 0h16m-128 1h64m48 0h16m-128 1h64m48 0h16m-128 1h64m48 0h16m-128 1h64m48 0h16m-144 1h96m48 0h16m-160 1h96m48 0h16m-160 1h96m48 0h16m-160 1h96m48 0h16m-160 1h96m48 0h16m-160 1h96m48 0h16m-160 1h96m48 0h16m-160 1h96m48 0h16m-176 1h80m32 0h16m48 0h16m-192 1h80m32 0h16m48 0h16m-192 1h80m32 0h16m48 0h16m-192 1h80m32 0h16m48 0h16m-192 1h80m32 0h16m48 0h16m-192 1h80m32 0h16m48 0h16m-192 1h80m32 0h16m48 0h16m-192 1h80m32 0h16m48 0h16m-208 1h80m64 0h16m48 0h16m-224 1h80m64 0h16m48 0h16m-224 1h80m64 0h16m48 0h16m-224 1h80m64 0h16m48 0h16m-224 1h80m64 0h16m48 0h16m-224 1h80m64 0h16m48 0h16m-224 1h80m64 0h16m48 0h16m-224 1h80m64 0h16m48 0h16m-240 1h80m96 0h16m48 0h16m-256 1h80m96 0h16m48 0h16m-256 1h80m96 0h16m48 0h16m-256 1h80m96 0h16m48 0h16m-256 1h80m96 0h16m48 0h16m-256 1h80m96 0h16m48 0h16m-256 1h80m96 0h16m48 0h16m-256 1h80m96 0h16m48 0h16m-272 1h80m128 0h16m48 0h16m-288 1h80m128 0h16m48 0h16m-288 1h80m128 0h16m48 0h16m-288 1h80m128 0h16m48 0h16m-288 1h80m128 0h16m48 0h16m-288 1h80m128 0h16m48 0h16m-288 1h80m128 0h16m48 0h16m-288 1h80m128 0h16m48 0h16m-304 1h80m160 0h16m48 0h16m-320 1h80m160 0h16m48 0h16m-320 1h80m160 0h16m48 0h16m-320 1h80m160 0h16m48 0h16m-320 1h80m160 0h16m48 0h16m-320 1h80m160 0h16m48 0h16m-320 1h80m160 0h16m48 0h16m-320 1h80m160 0h16m48 0h16m-320 1h64m192 0h16m-272 1h64m192 0h16m-272 1h64m192 0h16m-272 1h64m192 0h16m-272 1h64m192 0h16m-272 1h64m192 0h16m-272 1h64m192 0h16m-272 1h64m192 0h16m-256 1h32m224 0h16m-272 1h32m224 0h16m-272 1h32m224 0h16m-272 1h32m224 0h16m-272 1h32m224 0h16m-272 1h32m224 0h16m-272 1h32m224 0h16m-272 1h32m224 0h16m-144 9h32m-32 1h32m-32 1h32m-32 1h32m-32 1h32m-32 1h32m-32 1h32m-32 1h32m-48 1h64m-64 1h64m-64 1h64m-64 1h64m-64 1h64m-64 1h64m-64 1h64m-64 1h64m-80 1h96m-96 1h96m-96 1h96m-96 1h96m-96 1h96m-96 1h96m-96 1h96m-96 1h96m-112 1h128m-128 1h128m-128 1h128m-128 1h128m-128 1h128m-128 1h128m-128 1h128m-128 1h128m-144 1h160m-160 1h160m-160 1h160m-160 1h160m-160 1h160m-160 1h160m-160 1h160m-160 1h160m-160 1h160m-160 1h160m-160 1h160m-160 1h160m-160 1h160m-160 1h160m-160 1h160m-160 1h160m-144 1h128m-128 1h128m-128 1h128m-128 1h128m-128 1h128m-128 1h128m-128 1h128m-128 1h128m-112 1h96m-96 1h96m-96 1h96m-96 1h96m-96 1h96m-96 1h96m-96 1h96m-96 1h96m-80 1h64m-64 1h64m-64 1h64m-64 1h64m-64 1h64m-64 1h64m-64 1h64m-64 1h64m-48 1h32m-32 1h32m-32 1h32m-32 1h32m-32 1h32m-32 1h32m-32 1h32m-32 1h32m-160 73h32m224 0h32m-288 1h32m224 0h32m-288 1h32m224 0h32m-288 1h32m224 0h32m-288 1h32m224 0h32m-288 1h32m224 0h32m-288 1h32m224 0h32m-288 1h32m224 0h32m-304 1h64m192 0h64m-320 1h64m192 0h64m-320 1h64m192 0h64m-320 1h64m192 0h64m-320 1h64m192 0h64m-320 1h64m192 0h64m-320 1h64m192 0h64m-320 1h64m192 0h64m-320 1h80m160 0h80m-320 1h80m160 0h80m-320 1h80m160 0h80m-320 1h80m160 0h80m-320 1h80m160 0h80m-320 1h80m160 0h80m-320 1h80m160 0h80m-320 1h80m160 0h80m-304 1h80m128 0h80m-288 1h80m128 0h80m-288 1h80m128 0h80m-288 1h80m128 0h80m-288 1h80m128 0h80m-288 1h80m128 0h80m-288 1h80m128 0h80m-288 1h80m128 0h80m-272 1h80m96 0h80m-256 1h80m96 0h80m-256 1h80m96 0h80m-256 1h80m96 0h80m-256 1h80m96 0h80m-256 1h80m96 0h80m-256 1h80m96 0h80m-256 1h80m96 0h80m-240 1h80m64 0h80m-224 1h80m64 0h80m-224 1h80m64 0h80m-224 1h80m64 0h80m-224 1h80m64 0h80m-224 1h80m64 0h80m-224 1h80m64 0h80m-224 1h80m64 0h80m-208 1h80m32 0h80m-192 1h80m32 0h80m-192 1h80m32 0h80m-192 1h80m32 0h80m-192 1h80m32 0h80m-192 1h80m32 0h80m-192 1h80m32 0h80m-192 1h80m32 0h80m-176 1h160m-160 1h160m-160 1h160m-160 1h160m-160 1h160m-160 1h160m-160 1h160m-160 1h160m-144 1h128m-128 1h128m-128 1h128m-128 1h128m-128 1h128m-128 1h128m-128 1h128m-128 1h128m-112 1h96m-96 1h96m-96 1h96m-96 1h96m-96 1h96m-96 1h96m-96 1h96m-96 1h96m-80 1h64m-64 1h64m-64 1h64m-64 1h64m-64 1h64m-64 1h64m-64 1h64m-64 1h64m-48 1h32m-32 1h32m-32 1h32m-32 1h32m-32 1h32m-32 1h32m-32 1h32m-32 1h32"/><path stroke="#00a2ff" d="M256 72h16m-16 1h16m-16 1h16m-16 1h16m-16 1h16m-16 1h16m-16 1h16m-16 1h16m-32 1h16m16 0h16m-48 1h16m16 0h16m-48 1h16m16 0h16m-48 1h16m16 0h16m-48 1h16m16 0h16m-48 1h16m16 0h16m-48 1h16m16 0h16m-48 1h16m16 0h16m-32 1h16m16 0h16m-48 1h16m16 0h16m-48 1h16m16 0h16m-48 1h16m16 0h16m-48 1h16m16 0h16m-48 1h16m16 0h16m-48 1h16m16 0h16m-48 1h16m16 0h16m-32 1h16m16 0h16m-48 1h16m16 0h16m-48 1h16m16 0h16m-48 1h16m16 0h16m-48 1h16m16 0h16m-48 1h16m16 0h16m-48 1h16m16 0h16m-48 1h16m16 0h16m-32 1h16m16 0h16m-48 1h16m16 0h16m-48 1h16m16 0h16m-48 1h16m16 0h16m-48 1h16m16 0h16m-48 1h16m16 0h16m-48 1h16m16 0h16m-48 1h16m16 0h16m-32 1h16m16 0h16m-48 1h16m16 0h16m-48 1h16m16 0h16m-48 1h16m16 0h16m-48 1h16m16 0h16m-48 1h16m16 0h16m-48 1h16m16 0h16m-48 1h16m16 0h16m-32 1h16m16 0h16m-48 1h16m16 0h16m-48 1h16m16 0h16m-48 1h16m16 0h16m-48 1h16m16 0h16m-48 1h16m16 0h16m-48 1h16m16 0h16m-48 1h16m16 0h16m-32 1h16m16 0h16m-48 1h16m16 0h16m-48 1h16m16 0h16m-48 1h16m16 0h16m-48 1h16m16 0h16m-48 1h16m16 0h16m-48 1h16m16 0h16m-48 1h16m16 0h16m-32 1h16m16 0h16m-48 1h16m16 0h16m-48 1h16m16 0h16m-48 1h16m16 0h16m-48 1h16m16 0h16m-48 1h16m16 0h16m-48 1h16m16 0h16m-48 1h16m16 0h16m-32 1h16m16 0h16m-48 1h16m16 0h16m-48 1h16m16 0h16m-48 1h16m16 0h16m-48 1h16m16 0h16m-48 1h16m16 0h16m-48 1h16m16 0h16m-48 1h16m16 0h16m-32 1h16m-16 1h16m-16 1h16m-16 1h16m-16 1h16m-16 1h16m-16 1h16m-16 1h16m-8 57h8m-8 1h8m-8 1h8m-8 1h8m-8 1h8m-8 1h8m-8 1h8m-8 1h8"/><path stroke="#0080ff" d="M256 80h16m-16 1h16m-16 1h16m-16 1h16m-16 1h16m-16 1h16m-16 1h16m-16 1h16m0 1h16m-16 1h16m-16 1h16m-16 1h16m-16 1h16m-16 1h16m-16 1h16m-16 1h16m0 1h16m-16 1h16m-16 1h16m-16 1h16m-16 1h16m-16 1h16m-16 1h16m-16 1h16m0 1h16m-16 1h16m-16 1h16m-16 1h16m-16 1h16m-16 1h16m-16 1h16m-16 1h16m0 1h16m-16 1h16m-16 1h16m-16 1h16m-16 1h16m-16 1h16m-16 1h16m-16 1h16m0 1h16m-16 1h16m-16 1h16m-16 1h16m-16 1h16m-16 1h16m-16 1h16m-16 1h16m0 1h16m-16 1h16m-16 1h16m-16 1h16m-16 1h16m-16 1h16m-16 1h16m-16 1h16m0 1h16m-16 1h16m-16 1h16m-16 1h16m-16 1h16m-16 1h16m-16 1h16m-16 1h16m0 1h16m-16 1h16m-16 1h16m-16 1h16m-16 1h16m-16 1h16m-16 1h16m-16 1h16"/><path stroke="#22a831" d="M240 104h16m-16 1h16m-16 1h16m-16 1h16m-16 1h16m-16 1h16m-16 1h16m-16 1h16m-32 1h16m-16 1h16m-16 1h16m-16 1h16m-16 1h16m-16 1h16m-16 1h16m-16 1h16m-32 1h16m-16 1h16m-16 1h16m-16 1h16m-16 1h16m-16 1h16m-16 1h16m-16 1h16m-32 1h16m-16 1h16m-16 1h16m-16 1h16m-16 1h16m-16 1h16m-16 1h16m-16 1h16m-32 1h16m-16 1h16m-16 1h16m-16 1h16m-16 1h16m-16 1h16m-16 1h16m-16 1h16m-32 1h16m-16 1h16m-16 1h16m-16 1h16m-16 1h16m-16 1h16m-16 1h16m-16 1h16m-32 1h16m-16 1h16m-16 1h16m-16 1h16m-16 1h16m-16 1h16m-16 1h16m-16 1h16m-32 1h16m-16 1h16m-16 1h16m-16 1h16m-16 1h16m-16 1h16m-16 1h16m-16 1h16m192 41h8m-8 1h8m-8 1h8m-8 1h8m-8 1h8m-8 1h8m-8 1h8m-8 1h8m-24 1h16m-16 1h16m-16 1h16m-16 1h16m-16 1h16m-16 1h16m-16 1h16m-16 1h16m-32 1h16m-16 1h16m-16 1h16m-16 1h16m-16 1h16m-16 1h16m-16 1h16m-16 1h16m-32 1h16m-16 1h16m-16 1h16m-16 1h16m-16 1h16m-16 1h16m-16 1h16m-16 1h16m-32 1h16m-16 1h16m-16 1h16m-16 1h16m-16 1h16m-16 1h16m-16 1h16m-16 1h16m-32 1h16m-16 1h16m-16 1h16m-16 1h16m-16 1h16m-16 1h16m-16 1h16m-16 1h16m144 81h8m-8 1h8m-8 1h8m-8 1h8m-8 1h8m-8 1h8m-8 1h8m-8 1h8m-24 1h16m-16 1h16m-16 1h16m-16 1h16m-16 1h16m-16 1h16m-16 1h16m-16 1h16m-32 1h16m-16 1h16m-16 1h16m-16 1h16m-16 1h16m-16 1h16m-16 1h16m-16 1h16m-32 1h16m-16 1h16m-16 1h16m-16 1h16m-16 1h16m-16 1h16m-16 1h16m-16 1h16m-32 1h16m-16 1h16m-16 1h16m-16 1h16m-16 1h16m-16 1h16m-16 1h16m-16 1h16m-32 1h16m-16 1h16m-16 1h16m-16 1h16m-16 1h16m-16 1h16m-16 1h16m-16 1h16m-32 1h16m-16 1h16m-16 1h16m-16 1h16m-16 1h16m-16 1h16m-16 1h16m-16 1h16m-32 1h16m-16 1h16m-16 1h16m-16 1h16m-16 1h16m-16 1h16m-16 1h16m-16 1h16m-32 1h16m-16 1h16m-16 1h16m-16 1h16m-16 1h16m-16 1h16m-16 1h16m-16 1h16m-32 1h16m-16 1h16m-16 1h16m-16 1h16m-16 1h16m-16 1h16m-16 1h16m-16 1h16m-32 1h16m-16 1h16m-16 1h16m-16 1h16m-16 1h16m-16 1h16m-16 1h16m-16 1h16"/><path stroke="#147f2b" d="M256 104h16m-16 1h16m-16 1h16m-16 1h16m-16 1h16m-16 1h16m-16 1h16m-16 1h16m-32 1h16m16 0h16m-48 1h16m16 0h16m-48 1h16m16 0h16m-48 1h16m16 0h16m-48 1h16m16 0h16m-48 1h16m16 0h16m-48 1h16m16 0h16m-48 1h16m16 0h16m-64 1h8m8 0h16m32 0h16m-80 1h8m8 0h16m32 0h16m-80 1h8m8 0h16m32 0h16m-80 1h8m8 0h16m32 0h16m-80 1h8m8 0h16m32 0h16m-80 1h8m8 0h16m32 0h16m-80 1h8m8 0h16m32 0h16m-80 1h8m8 0h16m32 0h16m-96 1h24m8 0h8m56 0h16m-112 1h24m8 0h8m56 0h16m-112 1h24m8 0h8m56 0h16m-112 1h24m8 0h8m56 0h16m-112 1h24m8 0h8m56 0h16m-112 1h24m8 0h8m56 0h16m-112 1h24m8 0h8m56 0h16m-112 1h24m8 0h8m56 0h16m-128 1h8m8 0h16m96 0h16m-144 1h8m8 0h16m96 0h16m-144 1h8m8 0h16m96 0h16m-144 1h8m8 0h16m96 0h16m-144 1h8m8 0h16m96 0h16m-144 1h8m8 0h16m96 0h16m-144 1h8m8 0h16m96 0h16m-144 1h8m8 0h16m96 0h16m-248 1h8m80 0h24m16 0h8m112 0h16m-264 1h8m80 0h24m16 0h8m112 0h16m-264 1h8m80 0h24m16 0h8m112 0h16m-264 1h8m80 0h24m16 0h8m112 0h16m-264 1h8m80 0h24m16 0h8m112 0h16m-264 1h8m80 0h24m16 0h8m112 0h16m-264 1h8m80 0h24m16 0h8m112 0h16m-264 1h8m80 0h24m16 0h8m112 0h16m-256 1h16m48 0h16m8 0h8m160 0h16m-272 1h16m48 0h16m8 0h8m160 0h16m-272 1h16m48 0h16m8 0h8m160 0h16m-272 1h16m48 0h16m8 0h8m160 0h16m-272 1h16m48 0h16m8 0h8m160 0h16m-272 1h16m48 0h16m8 0h8m160 0h16m-272 1h16m48 0h16m8 0h8m160 0h16m-272 1h16m48 0h16m8 0h8m160 0h16m-256 1h16m16 0h24m200 0h16m-272 1h16m16 0h24m200 0h16m-272 1h16m16 0h24m200 0h16m-272 1h16m16 0h24m200 0h16m-272 1h16m16 0h24m200 0h16m-272 1h16m16 0h24m200 0h16m-272 1h16m16 0h24m200 0h16m-272 1h16m16 0h24m200 0h16m-256 1h24m8 0h8m-40 1h24m8 0h8m-40 1h24m8 0h8m-40 1h24m8 0h8m-40 1h24m8 0h8m-40 1h24m8 0h8m-40 1h24m8 0h8m-40 1h24m8 0h8m-32 1h8m-8 1h8m-8 1h8m-8 1h8m-8 1h8m-8 1h8m-8 1h8m-8 1h8m-8 1h8m-8 1h8m-8 1h8m-8 1h8m-8 1h8m-8 1h8m-8 1h8m-8 1h8m24 17h8m-8 1h8m-8 1h8m-8 1h8m-8 1h8m-8 1h8m-8 1h8m-8 1h8m0 1h16m144 0h8m-168 1h16m144 0h8m-168 1h16m144 0h8m-168 1h16m144 0h8m-168 1h16m144 0h8m-168 1h16m144 0h8m-168 1h16m144 0h8m-168 1h16m144 0h8m-152 1h16m112 0h24m-152 1h16m112 0h24m-152 1h16m112 0h24m-152 1h16m112 0h24m-152 1h16m112 0h24m-152 1h16m112 0h24m-152 1h16m112 0h24m-152 1h16m112 0h24m-136 1h16m80 0h32m-128 1h16m80 0h32m-128 1h16m80 0h32m-128 1h16m80 0h32m-128 1h16m80 0h32m-128 1h16m80 0h32m-128 1h16m80 0h32m-128 1h16m80 0h32m-112 1h16m48 0h32m8 0h8m-112 1h16m48 0h32m8 0h8m-112 1h16m48 0h32m8 0h8m-112 1h16m48 0h32m8 0h8m-112 1h16m48 0h32m8 0h8m-112 1h16m48 0h32m8 0h8m-112 1h16m48 0h32m8 0h8m-112 1h16m48 0h32m8 0h8m-96 1h16m16 0h32m8 0h8m-80 1h16m16 0h32m8 0h8m-80 1h16m16 0h32m8 0h8m-80 1h16m16 0h32m8 0h8m-80 1h16m16 0h32m8 0h8m-80 1h16m16 0h32m8 0h8m-80 1h16m16 0h32m8 0h8m-80 1h16m16 0h32m8 0h8m-64 1h24m8 0h8m-40 1h24m8 0h8m-40 1h24m8 0h8m-40 1h24m8 0h8m-40 1h24m8 0h8m-40 1h24m8 0h8m-40 1h24m8 0h8m-40 1h24m8 0h8m-40 1h24m8 0h8m-40 1h24m8 0h8m-40 1h24m8 0h8m-40 1h24m8 0h8m-40 1h24m8 0h8m-40 1h24m8 0h8m-40 1h24m8 0h8m-40 1h24m8 0h8m-40 1h8m8 0h8m-24 1h8m8 0h8m-24 1h8m8 0h8m-24 1h8m8 0h8m-24 1h8m8 0h8m-24 1h8m8 0h8m-24 1h8m8 0h8m-24 1h8m8 0h8M88 336h8m-8 1h8m-8 1h8m-8 1h8m-8 1h8m-8 1h8m-8 1h8m-8 1h8m0 1h16m304 0h8m-328 1h16m304 0h8m-328 1h16m304 0h8m-328 1h16m304 0h8m-328 1h16m304 0h8m-328 1h16m304 0h8m-328 1h16m304 0h8m-328 1h16m304 0h8m-312 1h16m272 0h8m8 0h8m-312 1h16m272 0h8m8 0h8m-312 1h16m272 0h8m8 0h8m-312 1h16m272 0h8m8 0h8m-312 1h16m272 0h8m8 0h8m-312 1h16m272 0h8m8 0h8m-312 1h16m272 0h8m8 0h8m-312 1h16m272 0h8m8 0h8m-296 1h16m240 0h8m8 0h8m-280 1h16m240 0h8m8 0h8m-280 1h16m240 0h8m8 0h8m-280 1h16m240 0h8m8 0h8m-280 1h16m240 0h8m8 0h8m-280 1h16m240 0h8m8 0h8m-280 1h16m240 0h8m8 0h8m-280 1h16m240 0h8m8 0h8m-264 1h16m208 0h24m-248 1h16m208 0h24m-248 1h16m208 0h24m-248 1h16m208 0h24m-248 1h16m208 0h24m-248 1h16m208 0h24m-248 1h16m208 0h24m-248 1h16m208 0h24m-232 1h16m176 0h24m8 0h8m-232 1h16m176 0h24m8 0h8m-232 1h16m176 0h24m8 0h8m-232 1h16m176 0h24m8 0h8m-232 1h16m176 0h24m8 0h8m-232 1h16m176 0h24m8 0h8m-232 1h16m176 0h24m8 0h8m-232 1h16m176 0h24m8 0h8m-216 1h16m144 0h8m8 0h16m-192 1h16m144 0h8m8 0h16m-192 1h16m144 0h8m8 0h16m-192 1h16m144 0h8m8 0h16m-192 1h16m144 0h8m8 0h16m-192 1h16m144 0h8m8 0h16m-192 1h16m144 0h8m8 0h16m-192 1h16m144 0h8m8 0h16m-176 1h16m112 0h8m8 0h8m16 0h8m-176 1h16m112 0h8m8 0h8m16 0h8m-176 1h16m112 0h8m8 0h8m16 0h8m-176 1h16m112 0h8m8 0h8m16 0h8m-176 1h16m112 0h8m8 0h8m16 0h8m-176 1h16m112 0h8m8 0h8m16 0h8m-176 1h16m112 0h8m8 0h8m16 0h8m-176 1h16m112 0h8m8 0h8m16 0h8m-160 1h16m80 0h16m-112 1h16m80 0h16m-112 1h16m80 0h16m-112 1h16m80 0h16m-112 1h16m80 0h16m-112 1h16m80 0h16m-112 1h16m80 0h16m-112 1h16m80 0h16m-96 1h16m48 0h16m8 0h8m-96 1h16m48 0h16m8 0h8m-96 1h16m48 0h16m8 0h8m-96 1h16m48 0h16m8 0h8m-96 1h16m48 0h16m8 0h8m-96 1h16m48 0h16m8 0h8m-96 1h16m48 0h16m8 0h8m-96 1h16m48 0h16m8 0h8m-80 1h16m16 0h16m8 0h8m-64 1h16m16 0h16m8 0h8m-64 1h16m16 0h16m8 0h8m-64 1h16m16 0h16m8 0h8m-64 1h16m16 0h16m8 0h8m-64 1h16m16 0h16m8 0h8m-64 1h16m16 0h16m8 0h8m-64 1h16m16 0h16m8 0h8m-48 1h32m-32 1h32m-32 1h32m-32 1h32m-32 1h32m-32 1h32m-32 1h32m-32 1h32m-32 1h8m8 0h8m-24 1h8m8 0h8m-24 1h8m8 0h8m-24 1h8m8 0h8m-24 1h8m8 0h8m-24 1h8m8 0h8m-24 1h8m8 0h8m-24 1h8m8 0h8m-24 1h8m-8 1h8m-8 1h8m-8 1h8m-8 1h8m-8 1h8m-8 1h8m-8 1h8"/><path stroke="#00552b" d="M256 112h16m-16 1h16m-16 1h16m-16 1h16m-16 1h16m-16 1h16m-16 1h16m-16 1h16m-8 1h24m-24 1h24m-24 1h24m-24 1h24m-24 1h24m-24 1h24m-24 1h24m-24 1h24m0 1h16m-16 1h16m-16 1h16m-16 1h16m-16 1h16m-16 1h16m-16 1h16m-16 1h16m0 1h16m-16 1h16m-16 1h16m-16 1h16m-16 1h16m-16 1h16m-16 1h16m-16 1h16m-8 1h16m-16 1h16m-16 1h16m-16 1h16m-16 1h16m-16 1h16m-16 1h16m-16 1h16m-240 1h8m216 0h8m16 0h16m-264 1h8m216 0h8m16 0h16m-264 1h8m216 0h8m16 0h16m-264 1h8m216 0h8m16 0h16m-264 1h8m216 0h8m16 0h16m-264 1h8m216 0h8m16 0h16m-264 1h8m216 0h8m16 0h16m-264 1h8m216 0h8m16 0h16m-256 1h16m224 0h32m-272 1h16m224 0h32m-272 1h16m224 0h32m-272 1h16m224 0h32m-272 1h16m224 0h32m-272 1h16m224 0h32m-272 1h16m224 0h32m-272 1h16m224 0h32m-264 1h24m216 0h16m8 0h16m-280 1h24m216 0h16m8 0h16m-280 1h24m216 0h16m8 0h16m-280 1h24m216 0h16m8 0h16m-280 1h24m216 0h16m8 0h16m-280 1h24m216 0h16m8 0h16m-280 1h24m216 0h16m8 0h16m-280 1h24m216 0h16m8 0h16m-280 1h16m224 0h8m16 0h16m-280 1h16m224 0h8m16 0h16m-280 1h16m224 0h8m16 0h16m-280 1h16m224 0h8m16 0h16m-280 1h16m224 0h8m16 0h16m-280 1h16m224 0h8m16 0h16m-280 1h16m224 0h8m16 0h16m-280 1h16m224 0h8m16 0h16m-272 1h8m248 0h8m-264 1h8m248 0h8m-264 1h8m248 0h8m-264 1h8m248 0h8m-264 1h8m248 0h8m-264 1h8m248 0h8m-264 1h8m248 0h8m-264 1h8m248 0h8m-208 25h8m-8 1h8m-8 1h8m-8 1h8m-8 1h8m-8 1h8m-8 1h8m-8 1h8m0 1h16m-16 1h16m-16 1h16m-16 1h16m-16 1h16m-16 1h16m-16 1h16m-16 1h16m-16 1h8m8 0h16m-32 1h8m8 0h16m-32 1h8m8 0h16m-32 1h8m8 0h16m-32 1h8m8 0h16m-32 1h8m8 0h16m-32 1h8m8 0h16m-32 1h8m8 0h16m-32 1h8m8 0h32m-48 1h8m8 0h32m-48 1h8m8 0h32m-48 1h8m8 0h32m-48 1h8m8 0h32m-48 1h8m8 0h32m-48 1h8m8 0h32m-48 1h8m8 0h32m-24 1h8m8 0h24m-40 1h8m8 0h24m-40 1h8m8 0h24m-40 1h8m8 0h24m-40 1h8m8 0h24m-40 1h8m8 0h24m-40 1h8m8 0h24m-40 1h8m8 0h24m-24 1h40m-40 1h40m-40 1h40m-40 1h40m-40 1h40m-40 1h40m-40 1h40m-40 1h40m-32 1h8m8 0h16m-32 1h8m8 0h16m-32 1h8m8 0h16m-32 1h8m8 0h16m-32 1h8m8 0h16m-32 1h8m8 0h16m-32 1h8m8 0h16m-32 1h8m8 0h16m-8 1h8m-8 1h8m-8 1h8m-8 1h8m-8 1h8m-8 1h8m-8 1h8m-8 1h8m-8 1h8m-8 1h8m-8 1h8m-8 1h8m-8 1h8m-8 1h8m-8 1h8m-8 1h8M88 344h8m-8 1h8m-8 1h8m-8 1h8m-8 1h8m-8 1h8m-8 1h8m-8 1h8m-8 1h24m-24 1h24m-24 1h24m-24 1h24m-24 1h24m-24 1h24m-24 1h24m-24 1h24m-24 1h8m8 0h24m-40 1h8m8 0h24m-40 1h8m8 0h24m-40 1h8m8 0h24m-40 1h8m8 0h24m-40 1h8m8 0h24m-40 1h8m8 0h24m-40 1h8m8 0h24m-16 1h8m8 0h16m-32 1h8m8 0h16m-32 1h8m8 0h16m-32 1h8m8 0h16m-32 1h8m8 0h16m-32 1h8m8 0h16m-32 1h8m8 0h16m-32 1h8m8 0h16m-32 1h8m16 0h24m-48 1h8m16 0h24m-48 1h8m16 0h24m-48 1h8m16 0h24m-48 1h8m16 0h24m-48 1h8m16 0h24m-48 1h8m16 0h24m-48 1h8m16 0h24m-24 1h8m8 0h24m-40 1h8m8 0h24m-40 1h8m8 0h24m-40 1h8m8 0h24m-40 1h8m8 0h24m-40 1h8m8 0h24m-40 1h8m8 0h24m-40 1h8m8 0h24m-40 1h8m16 0h24m-48 1h8m16 0h24m-48 1h8m16 0h24m-48 1h8m16 0h24m-48 1h8m16 0h24m-48 1h8m16 0h24m-48 1h8m16 0h24m-48 1h8m16 0h24m-24 1h16m16 0h16m-48 1h16m16 0h16m-48 1h16m16 0h16m-48 1h16m16 0h16m-48 1h16m16 0h16m-48 1h16m16 0h16m-48 1h16m16 0h16m-48 1h16m16 0h16m-40 1h8m24 0h24m-56 1h8m24 0h24m-56 1h8m24 0h24m-56 1h8m24 0h24m-56 1h8m24 0h24m-56 1h8m24 0h24m-56 1h8m24 0h24m-56 1h8m24 0h24m-24 1h8m8 0h24m-40 1h8m8 0h24m-40 1h8m8 0h24m-40 1h8m8 0h24m-40 1h8m8 0h24m-40 1h8m8 0h24m-40 1h8m8 0h24m-40 1h8m8 0h24m-24 1h8m8 0h24m-40 1h8m8 0h24m-40 1h8m8 0h24m-40 1h8m8 0h24m-40 1h8m8 0h24m-40 1h8m8 0h24m-40 1h8m8 0h24m-40 1h8m8 0h24m-24 1h8m8 0h8m-24 1h8m8 0h8m-24 1h8m8 0h8m-24 1h8m8 0h8m-24 1h8m8 0h8m-24 1h8m8 0h8m-24 1h8m8 0h8m-24 1h8m8 0h8"/><path stroke="#88492a" d="M232 120h8m-8 1h8m-8 1h8m-8 1h8m-8 1h8m-8 1h8m-8 1h8m-8 1h8m-8 1h8m8 0h8m-24 1h8m8 0h8m-24 1h8m8 0h8m-24 1h8m8 0h8m-24 1h8m8 0h8m-24 1h8m8 0h8m-24 1h8m8 0h8m-24 1h8m8 0h8m-56 1h8m16 0h32m-56 1h8m16 0h32m-56 1h8m16 0h32m-56 1h8m16 0h32m-56 1h8m16 0h32m-56 1h8m16 0h32m-56 1h8m16 0h32m-56 1h8m16 0h32m-56 1h16m8 0h16m-40 1h16m8 0h16m-40 1h16m8 0h16m-40 1h16m8 0h16m-40 1h16m8 0h16m-40 1h16m8 0h16m-40 1h16m8 0h16m-40 1h16m8 0h16m-64 1h8m8 0h32m-48 1h8m8 0h32m-48 1h8m8 0h32m-48 1h8m8 0h32m-48 1h8m8 0h32m-48 1h8m8 0h32m-48 1h8m8 0h32m-48 1h8m8 0h32m-56 1h40m-40 1h40m-40 1h40m-40 1h40m-40 1h40m-40 1h40m-40 1h40m-40 1h40m-56 1h8m8 0h24m-40 1h8m8 0h24m-40 1h8m8 0h24m-40 1h8m8 0h24m-40 1h8m8 0h24m-40 1h8m8 0h24m-40 1h8m8 0h24m-40 1h8m8 0h24m-64 1h8m8 0h32m-48 1h8m8 0h32m-48 1h8m8 0h32m-48 1h8m8 0h32m-48 1h8m8 0h32m-48 1h8m8 0h32m-48 1h8m8 0h32m-48 1h8m8 0h32m-48 1h8m8 0h16m-32 1h8m8 0h16m-32 1h8m8 0h16m-32 1h8m8 0h16m-32 1h8m8 0h16m-32 1h8m8 0h16m-32 1h8m8 0h16m-32 1h8m8 0h16m-32 1h16m-16 1h16m-16 1h16m-16 1h16m-16 1h16m-16 1h16m-16 1h16m-16 1h16m192 33h8m-8 1h8m-8 1h8m-8 1h8m-8 1h8m-8 1h8m-8 1h8m-8 1h8m-24 1h8m8 0h8m-24 1h8m8 0h8m-24 1h8m8 0h8m-24 1h8m8 0h8m-24 1h8m8 0h8m-24 1h8m8 0h8m-24 1h8m8 0h8m-24 1h8m8 0h8m-40 1h8m8 0h24m-40 1h8m8 0h24m-40 1h8m8 0h24m-40 1h8m8 0h24m-40 1h8m8 0h24m-40 1h8m8 0h24m-40 1h8m8 0h24m-40 1h8m8 0h24m-64 1h8m8 0h48m-64 1h8m8 0h48m-64 1h8m8 0h48m-64 1h8m8 0h48m-64 1h8m8 0h48m-64 1h8m8 0h48m-64 1h8m8 0h48m-64 1h8m8 0h48m-64 1h8m8 0h48m-64 1h8m8 0h48m-64 1h8m8 0h48m-64 1h8m8 0h48m-64 1h8m8 0h48m-64 1h8m8 0h48m-64 1h8m8 0h48m-64 1h8m8 0h48m-80 1h8m8 0h64m-80 1h8m8 0h64m-80 1h8m8 0h64m-80 1h8m8 0h64m-80 1h8m8 0h64m-80 1h8m8 0h64m-80 1h8m8 0h64m-80 1h8m8 0h64m-88 1h88m-88 1h88m-88 1h88m-88 1h88m-88 1h88m-88 1h88m-88 1h88m-88 1h88m-88 1h88m-88 1h88m-88 1h88m-88 1h88m-88 1h88m-88 1h88m-88 1h88m-88 1h88m-88 1h88m-88 1h88m-88 1h88m-88 1h88m-88 1h88m-88 1h88m-88 1h88m-88 1h88m-88 1h88m-88 1h88m-88 1h88m-88 1h88m-88 1h88m-88 1h88m-88 1h88m-88 1h88m-88 1h80m-80 1h80m-80 1h80m-80 1h80m-80 1h80m-80 1h80m-80 1h80m-80 1h80m-80 1h64m-64 1h64m-64 1h64m-64 1h64m-64 1h64m-64 1h64m-64 1h64m-64 1h64m-64 1h48m-48 1h48m-48 1h48m-48 1h48m-48 1h48m-48 1h48m-48 1h48m-48 1h48m-48 1h32m-32 1h32m-32 1h32m-32 1h32m-32 1h32m-32 1h32m-32 1h32m-32 1h32m-32 1h16m-16 1h16m-16 1h16m-16 1h16m-16 1h16m-16 1h16m-16 1h16m-16 1h16m136 1h8m-8 1h8m-8 1h8m-8 1h8m-8 1h8m-8 1h8m-8 1h8m-8 1h8m-24 1h8m8 0h16m-32 1h8m8 0h16m-32 1h8m8 0h16m-32 1h8m8 0h16m-32 1h8m8 0h16m-32 1h8m8 0h16m-32 1h8m8 0h16m-32 1h8m8 0h16m-32 1h32m-32 1h32m-32 1h32m-32 1h32m-32 1h32m-32 1h32m-32 1h32m-32 1h32m-48 1h8m8 0h24m-40 1h8m8 0h24m-40 1h8m8 0h24m-40 1h8m8 0h24m-40 1h8m8 0h24m-40 1h8m8 0h24m-40 1h8m8 0h24m-40 1h8m8 0h24m-72 1h8m16 0h32m-56 1h8m16 0h32m-56 1h8m16 0h32m-56 1h8m16 0h32m-56 1h8m16 0h32m-56 1h8m16 0h32m-56 1h8m16 0h32m-56 1h8m16 0h32m-72 1h8m8 0h16m8 0h16m-56 1h8m8 0h16m8 0h16m-56 1h8m8 0h16m8 0h16m-56 1h8m8 0h16m8 0h16m-56 1h8m8 0h16m8 0h16m-56 1h8m8 0h16m8 0h16m-56 1h8m8 0h16m8 0h16m-56 1h8m8 0h16m8 0h16m-64 1h48m-48 1h48m-48 1h48m-48 1h48m-48 1h48m-48 1h48m-48 1h48m-48 1h48m-64 1h8m8 0h32m-48 1h8m8 0h32m-48 1h8m8 0h32m-48 1h8m8 0h32m-48 1h8m8 0h32m-48 1h8m8 0h32m-48 1h8m8 0h32m-48 1h8m8 0h32m-64 1h8m8 0h32m-48 1h8m8 0h32m-48 1h8m8 0h32m-48 1h8m8 0h32m-48 1h8m8 0h32m-48 1h8m8 0h32m-48 1h8m8 0h32m-48 1h8m8 0h32m-48 1h32m-32 1h32m-32 1h32m-32 1h32m-32 1h32m-32 1h32m-32 1h32m-32 1h32m-56 1h8m8 0h24m-40 1h8m8 0h24m-40 1h8m8 0h24m-40 1h8m8 0h24m-40 1h8m8 0h24m-40 1h8m8 0h24m-40 1h8m8 0h24m-40 1h8m8 0h24m-40 1h24m-24 1h24m-24 1h24m-24 1h24m-24 1h24m-24 1h24m-24 1h24m-24 1h24m-32 1h16m-16 1h16m-16 1h16m-16 1h16m-16 1h16m-16 1h16m-16 1h16m-16 1h16"/><path stroke="#5e3631" d="M256 120h8m-8 1h8m-8 1h8m-8 1h8m-8 1h8m-8 1h8m-8 1h8m-8 1h8m-8 1h32m-32 1h32m-32 1h32m-32 1h32m-32 1h32m-32 1h32m-32 1h32m-32 1h32m-32 1h48m-48 1h48m-48 1h48m-48 1h48m-48 1h48m-48 1h48m-48 1h48m-48 1h48m-32 1h40m16 0h8m-64 1h40m16 0h8m-64 1h40m16 0h8m-64 1h40m16 0h8m-64 1h40m16 0h8m-64 1h40m16 0h8m-64 1h40m16 0h8m-64 1h40m16 0h8m-48 1h24m8 0h16m-48 1h24m8 0h16m-48 1h24m8 0h16m-48 1h24m8 0h16m-48 1h24m8 0h16m-48 1h24m8 0h16m-48 1h24m8 0h16m-48 1h24m8 0h16m-248 1h8m208 0h32m-248 1h8m208 0h32m-248 1h8m208 0h32m-248 1h8m208 0h32m-248 1h8m208 0h32m-248 1h8m208 0h32m-248 1h8m208 0h32m-248 1h8m208 0h32m-248 1h16m216 0h24m16 0h8m-280 1h16m216 0h24m16 0h8m-280 1h16m216 0h24m16 0h8m-280 1h16m216 0h24m16 0h8m-280 1h16m216 0h24m16 0h8m-280 1h16m216 0h24m16 0h8m-280 1h16m216 0h24m16 0h8m-280 1h16m216 0h24m16 0h8m-280 1h16m16 0h8m208 0h8m8 0h16m-280 1h16m16 0h8m208 0h8m8 0h16m-280 1h16m16 0h8m208 0h8m8 0h16m-280 1h16m16 0h8m208 0h8m8 0h16m-280 1h16m16 0h8m208 0h8m8 0h16m-280 1h16m16 0h8m208 0h8m8 0h16m-280 1h16m16 0h8m208 0h8m8 0h16m-280 1h16m16 0h8m208 0h8m8 0h16m-272 1h16m8 0h8m224 0h16m8 0h8m-288 1h16m8 0h8m224 0h16m8 0h8m-288 1h16m8 0h8m224 0h16m8 0h8m-288 1h16m8 0h8m224 0h16m8 0h8m-288 1h16m8 0h8m224 0h16m8 0h8m-288 1h16m8 0h8m224 0h16m8 0h8m-288 1h16m8 0h8m224 0h16m8 0h8m-288 1h16m8 0h8m224 0h16m8 0h8m-272 1h16m240 0h16m-272 1h16m240 0h16m-272 1h16m240 0h16m-272 1h16m240 0h16m-272 1h16m240 0h16m-272 1h16m240 0h16m-272 1h16m240 0h16m-272 1h16m240 0h16m-216 25h8m-8 1h8m-8 1h8m-8 1h8m-8 1h8m-8 1h8m-8 1h8m-8 1h8m-8 1h8m8 0h8m-24 1h8m8 0h8m-24 1h8m8 0h8m-24 1h8m8 0h8m-24 1h8m8 0h8m-24 1h8m8 0h8m-24 1h8m8 0h8m-24 1h8m8 0h8m-24 1h8m8 0h8m-24 1h8m8 0h8m-24 1h8m8 0h8m-24 1h8m8 0h8m-24 1h8m8 0h8m-24 1h8m8 0h8m-24 1h8m8 0h8m-24 1h8m8 0h8m-24 1h32m8 0h8m-48 1h32m8 0h8m-48 1h32m8 0h8m-48 1h32m8 0h8m-48 1h32m8 0h8m-48 1h32m8 0h8m-48 1h32m8 0h8m-48 1h32m8 0h8m-48 1h48m-48 1h48m-48 1h48m-48 1h48m-48 1h48m-48 1h48m-48 1h48m-48 1h48m-48 1h56m8 0h8m-72 1h56m8 0h8m-72 1h56m8 0h8m-72 1h56m8 0h8m-72 1h56m8 0h8m-72 1h56m8 0h8m-72 1h56m8 0h8m-72 1h56m8 0h8m-72 1h80m-80 1h80m-80 1h80m-80 1h80m-80 1h80m-80 1h80m-80 1h80m-80 1h80m-80 1h80m-80 1h80m-80 1h80m-80 1h80m-80 1h80m-80 1h80m-80 1h80m-80 1h80m-80 1h88m-88 1h88m-88 1h88m-88 1h88m-88 1h88m-88 1h88m-88 1h88m-88 1h88m-88 1h88m-88 1h88m-88 1h88m-88 1h88m-88 1h88m-88 1h88m-88 1h88m-88 1h88m-88 1h88m-88 1h88m-88 1h88m-88 1h88m-88 1h88m-88 1h88m-88 1h88m-88 1h88m-80 1h80m-80 1h80m-80 1h80m-80 1h80m-80 1h80m-80 1h80m-80 1h80m-80 1h80m-64 1h64m-64 1h64m-64 1h64m-64 1h64m-64 1h64m-64 1h64m-64 1h64m-64 1h64m-48 1h48m-48 1h48m-48 1h48m-48 1h48m-48 1h48m-48 1h48m-48 1h48m-48 1h48m-32 1h32m-32 1h32m-32 1h32m-32 1h32m-32 1h32m-32 1h32m-32 1h32m-32 1h32m-16 1h16m-16 1h16m-16 1h16m-16 1h16m-16 1h16m-16 1h16m-16 1h16m-16 1h16m-160 9h8m-8 1h8m-8 1h8m-8 1h8m-8 1h8m-8 1h8m-8 1h8m-8 1h8m-16 1h24m8 0h8m-40 1h24m8 0h8m-40 1h24m8 0h8m-40 1h24m8 0h8m-40 1h24m8 0h8m-40 1h24m8 0h8m-40 1h24m8 0h8m-40 1h24m8 0h8m-32 1h16m8 0h16m-40 1h16m8 0h16m-40 1h16m8 0h16m-40 1h16m8 0h16m-40 1h16m8 0h16m-40 1h16m8 0h16m-40 1h16m8 0h16m-40 1h16m8 0h16m-24 1h24m8 0h8m-40 1h24m8 0h8m-40 1h24m8 0h8m-40 1h24m8 0h8m-40 1h24m8 0h8m-40 1h24m8 0h8m-40 1h24m8 0h8m-40 1h24m8 0h8m-24 1h8m8 0h16m24 0h8m-64 1h8m8 0h16m24 0h8m-64 1h8m8 0h16m24 0h8m-64 1h8m8 0h16m24 0h8m-64 1h8m8 0h16m24 0h8m-64 1h8m8 0h16m24 0h8m-64 1h8m8 0h16m24 0h8m-64 1h8m8 0h16m24 0h8m-48 1h16m16 0h16m-48 1h16m16 0h16m-48 1h16m16 0h16m-48 1h16m16 0h16m-48 1h16m16 0h16m-48 1h16m16 0h16m-48 1h16m16 0h16m-48 1h16m16 0h16m-32 1h8m8 0h24m-40 1h8m8 0h24m-40 1h8m8 0h24m-40 1h8m8 0h24m-40 1h8m8 0h24m-40 1h8m8 0h24m-40 1h8m8 0h24m-40 1h8m8 0h24m-24 1h24m8 0h8m-40 1h24m8 0h8m-40 1h24m8 0h8m-40 1h24m8 0h8m-40 1h24m8 0h8m-40 1h24m8 0h8m-40 1h24m8 0h8m-40 1h24m8 0h8m-24 1h24m8 0h8m-40 1h24m8 0h8m-40 1h24m8 0h8m-40 1h24m8 0h8m-40 1h24m8 0h8m-40 1h24m8 0h8m-40 1h24m8 0h8m-40 1h24m8 0h8m-24 1h24m8 0h8m-40 1h24m8 0h8m-40 1h24m8 0h8m-40 1h24m8 0h8m-40 1h24m8 0h8m-40 1h24m8 0h8m-40 1h24m8 0h8m-40 1h24m8 0h8m-24 1h32m-32 1h32m-32 1h32m-32 1h32m-32 1h32m-32 1h32m-32 1h32m-32 1h32m-16 1h16m-16 1h16m-16 1h16m-16 1h16m-16 1h16m-16 1h16m-16 1h16m-16 1h16"/><path stroke="#4dbeff" d="M416 144h8m-8 1h8m-8 1h8m-8 1h8m-8 1h8m-8 1h8m-8 1h8m-8 1h8m-24 1h24m-24 1h24m-24 1h24m-24 1h24m-24 1h24m-24 1h24m-24 1h24m-24 1h24m-40 1h40m-40 1h40m-40 1h40m-40 1h40m-40 1h40m-40 1h40m-40 1h40m-40 1h40m-40 1h40m-40 1h40m-40 1h40m-40 1h40m-40 1h40m-40 1h40m-40 1h40m-40 1h40m-40 1h32m-32 1h32m-32 1h32m-32 1h32m-32 1h32m-32 1h32m-32 1h32m-32 1h32m-32 1h32m-32 1h32m-32 1h32m-32 1h32m-32 1h32m-32 1h32m-32 1h32m-32 1h32m-32 1h16m8 0h8m-32 1h16m8 0h8m-32 1h16m8 0h8m-32 1h16m8 0h8m-32 1h16m8 0h8m-32 1h16m8 0h8m-32 1h16m8 0h8m-32 1h16m8 0h8m-24 1h8m8 0h8m-24 1h8m8 0h8m-24 1h8m8 0h8m-24 1h8m8 0h8m-24 1h8m8 0h8m-24 1h8m8 0h8m-24 1h8m8 0h8m-24 1h8m8 0h8"/></svg>