<?xml version="1.0" encoding="utf-8"?>
<!-- Generator: Adobe Illustrator 27.1.1, SVG Export Plug-In . SVG Version: 6.00 Build 0)  -->
<svg version="1.1" id="Layer_1" xmlns="http://www.w3.org/2000/svg" xmlns:xlink="http://www.w3.org/1999/xlink" x="0px" y="0px"
	 viewBox="0 0 1000 1000" style="enable-background:new 0 0 1000 1000;" xml:space="preserve">
<style type="text/css">
	.st0{display:none;fill-rule:evenodd;clip-rule:evenodd;}
	.st1{display:none;fill-rule:evenodd;clip-rule:evenodd;fill:#FFFFFF;}
	.st2{fill-rule:evenodd;clip-rule:evenodd;fill:#FFFFFF;}
</style>
<path class="st0" d="M675.6,500v85.7c0,11.8-6.7,22.5-17.1,27.5l-120.8,58.1c-23.9,11.5-51.5,11.4-75.4-0.1l-120.9-58
	c-10.4-5-17.1-15.7-17.1-27.5V500H1.6v498.4H1000V500H675.6z M828,716.8c0,9.5-5.3,18.2-13.8,22.3L537.9,873.9
	c-24.2,11.8-52.2,11.8-76.4,0L185.8,739.1c-8.4-4.1-13.8-12.8-13.8-22.3v-50c0-10,5.9-19.1,15-22.9l41.7-17.5
	c12.5-5.2,26.6-5,39,0.6l196.1,89.1c22.9,10.4,49,10.4,71.9,0L732.3,627c12.3-5.6,26.4-5.8,38.9-0.5L813,644
	c9.1,3.8,15,12.8,15,22.9V716.8z"/>
<path class="st0" d="M1.6,1.6V500h322.8v-85.8c0-11.8,6.7-22.5,17.1-27.5l120.9-58c23.9-11.5,51.5-11.5,75.4-0.1l120.8,58.1
	c10.4,5,17.1,15.7,17.1,27.5V500H1000V1.6H1.6z M828,333.2c0,10-5.9,19.1-15,22.9l-41.8,17.5c-12.5,5.2-26.5,5.1-38.9-0.5L535.6,284
	c-22.9-10.4-49-10.4-71.9,0l-196,89c-12.4,5.6-26.4,5.8-39,0.6L187,356.1c-9.1-3.8-15-12.8-15-22.9v-50c0-9.5,5.3-18.2,13.8-22.3
	l275.8-134.8c24.1-11.8,52.2-11.8,76.4,0l276.3,134.8c8.4,4.1,13.8,12.8,13.8,22.3L828,333.2L828,333.2z"/>
<path class="st0" d="M828,666.8v50c0,9.5-5.3,18.2-13.8,22.3L537.9,873.9c-24.2,11.8-52.2,11.8-76.4,0L185.8,739.1
	c-8.4-4.1-13.8-12.8-13.8-22.3v-50c0-10,5.9-19.1,15-22.9l41.7-17.5c12.5-5.2,26.6-5,39,0.6l196.1,89.1c22.9,10.4,49,10.4,71.9,0
	L732.3,627c12.3-5.6,26.4-5.8,38.9-0.5L813,644C822.1,647.8,828,656.8,828,666.8z M658.5,386.8l-120.8-58.1
	c-23.9-11.5-51.5-11.4-75.4,0.1l-120.9,58c-10.4,5-17.1,15.7-17.1,27.5v171.5c0,11.8,6.7,22.5,17.1,27.5l120.9,58
	c23.9,11.5,51.5,11.5,75.4,0.1l120.8-58.1c10.4-5,17.1-15.7,17.1-27.5V414.3C675.6,402.5,669,391.8,658.5,386.8z M814.2,260.9
	L537.9,126.1c-24.2-11.8-52.2-11.8-76.4,0L185.8,260.9c-8.4,4.1-13.8,12.8-13.8,22.3v50c0,10,5.9,19.1,15,22.9l41.7,17.5
	c12.5,5.2,26.6,5.1,39-0.6l196.1-89.1c22.9-10.4,49-10.4,71.9,0L732.3,373c12.3,5.6,26.4,5.8,38.9,0.5L813,356
	c9.1-3.8,15-12.8,15-22.9v-50C828,273.7,822.6,265,814.2,260.9z"/>
<path class="st0" d="M324.4,585.8V500h351.3v85.7c0,11.8-6.7,22.5-17.1,27.5l-120.8,58.1c-23.9,11.5-51.5,11.4-75.4-0.1l-120.9-58
	C331,608.2,324.4,597.5,324.4,585.8z"/>
<path class="st0" d="M828,666.8v50c0,9.5-5.3,18.2-13.8,22.3L537.9,873.9c-24.2,11.8-52.2,11.8-76.4,0L185.8,739.1
	c-8.4-4.1-13.8-12.8-13.8-22.3v-50c0-10,5.9-19.1,15-22.9l41.7-17.5c12.5-5.2,26.6-5,39,0.6l196.1,89.1c22.9,10.4,49,10.4,71.9,0
	L732.3,627c12.3-5.6,26.4-5.8,38.9-0.5L813,644C822.1,647.8,828,656.8,828,666.8z"/>
<path class="st0" d="M454.5,865L186,737.2c-10.3-4.9-16.9-15.4-16.9-26.8V668c0-12,7.3-22.9,18.4-27.5l32.5-13.4
	c16.6-6.8,35.4-6.6,51.8,0.7l196.6,86.8c20.8,9.2,44.6,9.2,65.4-0.1L728,628c16.5-7.4,35.3-7.6,52-0.8l32.4,13.3
	c11.1,4.6,18.4,15.4,18.4,27.5v42.5c0,11.4-6.6,21.8-16.9,26.8L547.7,864.9C518.3,879,484,879.1,454.5,865z M676.8,414.2v169.5
	c0,11.8-6.8,22.4-17.4,27.5l-123.6,58.3c-22.1,10.4-47.6,10.5-69.7,0.1l-125.2-58.4c-10.7-5-17.5-15.7-17.5-27.5V414.3
	c0-11.8,6.8-22.5,17.5-27.5L466,328.3c22.1-10.3,47.7-10.3,69.7,0.1l123.6,58.3C670,391.8,676.8,402.5,676.8,414.2z M468.2,283.3
	l-196.3,86.8c-16.5,7.3-35.2,7.5-51.9,0.7l-32.5-13.3c-11.1-4.6-18.4-15.4-18.4-27.5v-42.3c0-11.5,6.6-22,17.1-26.9l268.6-126.3
	c29.2-13.7,63-13.7,92.2,0.1l266.9,126.2c10.4,4.9,17,15.4,17,26.8V330c0,12-7.3,22.9-18.4,27.5l-32.4,13.3
	c-16.7,6.9-35.5,6.6-52-0.8l-194.5-86.6C512.7,274.1,489,274.1,468.2,283.3z"/>
<path class="st1" d="M452.3,864.9L186,737.2c-10.3-4.9-16.9-15.3-16.9-26.8V668c0-12,7.3-22.9,18.4-27.5l32.4-13.3
	c16.7-6.9,35.5-6.6,52,0.8l194.2,86.6c20.8,9.3,44.6,9.3,65.4,0.1l196.6-86.8c16.5-7.3,35.2-7.5,51.8-0.7l32.5,13.4
	c11.1,4.6,18.4,15.4,18.4,27.5v42.4c0,11.5-6.6,21.9-16.9,26.8L545.5,865C516,879.1,481.7,879,452.3,864.9z M340.7,386.8l123.6-58.3
	c22.1-10.4,47.6-10.5,69.7-0.1l125.2,58.4c10.7,5,17.5,15.7,17.5,27.5v169.4c0,11.8-6.8,22.5-17.5,27.5L534,669.6
	c-22.1,10.3-47.7,10.3-69.7-0.1l-123.6-58.3c-10.6-5-17.4-15.7-17.4-27.5V414.2C323.2,402.5,330,391.8,340.7,386.8z M466.5,283.3
	L271.9,370c-16.5,7.3-35.3,7.6-52,0.8l-32.4-13.3c-11.1-4.6-18.4-15.4-18.4-27.5v-42.4c0-11.5,6.6-21.9,17-26.8L453,134.6
	c29.2-13.8,63-13.8,92.2-0.1l268.6,126.3c10.4,4.9,17.1,15.4,17.1,26.9V330c0,12-7.3,22.9-18.4,27.5L780,370.8
	c-16.7,6.8-35.4,6.6-51.9-0.7l-196.3-86.8C511,274.1,487.3,274.1,466.5,283.3z"/>
<path class="st0" d="M500.9,112.8l-0.9,0.4v156l0.9-0.4l250.8,112.7l76.3-31.6v-81L500.9,112.8z M500.9,316.2l-0.9,0.4v364.7
	l0.9,0.4l170.5-81.1V397.3L500.9,316.2z M751.7,616.5L501.2,729.2l-1.2-0.5v158l1.2,0.5l326.8-158v-81L751.7,616.5z"/>
<polygon class="st2" points="819.9,252 819.9,335 744,365.9 500,259.2 256,365.9 180.1,335 180.1,252 500,103.2 "/>
<polygon class="st2" points="744,634.1 819.9,665 819.9,748 500,896.8 180.1,748 180.1,665 256,634.1 500,740.8 "/>
<polygon class="st2" points="500,683.4 325.3,602.7 325.3,397.3 500,316.6 674.7,397.3 674.7,602.7 "/>
<path class="st1" d="M814.1,259.1L537.8,125.9c-23.9-11.5-51.6-11.5-75.6,0L185.9,259.1c-8.5,4.1-13.9,12.8-13.9,22.4v49.9
	c0,10,5.9,19.1,15,22.9l36.4,15.3c15.9,6.7,33.9,6.4,49.6-0.7l191.1-86.7c22.9-10.4,49-10.4,71.9,0l191,86.6
	c15.8,7.2,33.7,7.4,49.6,0.7l36.4-15.3c9.1-3.8,15-12.8,15-22.9v-49.9C828,271.9,822.6,263.2,814.1,259.1z M658.5,384.9l-120.8-58.1
	c-23.9-11.5-51.5-11.4-75.4,0.1l-120.9,58c-10.4,5-17.1,15.7-17.1,27.5v173.3c0,11.8,6.7,22.5,17.1,27.5l120.9,58
	c23.9,11.5,51.5,11.5,75.4,0.1l120.8-58.1c10.4-5,17.1-15.7,17.1-27.5V412.5C675.6,400.7,669,389.9,658.5,384.9z M813,643.9
	l-41.8-17.5c-12.5-5.2-26.5-5-38.9,0.5L535.6,716c-22.9,10.4-49,10.4-71.9,0l-196-89c-12.4-5.6-26.4-5.8-39-0.6L187,643.9
	c-9.1,3.8-15,12.8-15,22.9v50c0,9.5,5.3,18.2,13.8,22.3l275.8,134.8c24.1,11.8,52.2,11.8,76.4,0l276.3-134.8
	c8.4-4.1,13.8-12.8,13.8-22.3v-50C828,656.8,822.1,647.8,813,643.9z"/>
<image style="display:none;overflow:visible;enable-background:new    ;" width="70" height="70" xlink:href="611DA0FA.jpg"  transform="matrix(14.2857 0 0 14.2857 1.6 -7.8438)">
</image>
<rect class="st0" width="500" height="1000"/>
<rect x="322.8" y="429.5" class="st0" width="354.4" height="73.1"/>
</svg>
