<svg aria-hidden="true" style="position: absolute; width: 0; height: 0; overflow: hidden;" version="1.1" xmlns="http://www.w3.org/2000/svg" xmlns:xlink="http://www.w3.org/1999/xlink">
    <defs>
        <symbol id="mojang" viewBox="-0 -68 72 72">
        <path
            fill="var(--fill)"
            d="M31.0781-66.6563L31.0781-66.6563Q31.0078-66.6563 30.9375-66.6211Q30.8672-66.5859 30.8672-66.5859L30.8672-66.5859Q30.8672-66.5859 30.8320-66.5156Q30.7969-66.4453 30.6563-66.4453L30.6563-66.4453Q30.4453-66.3047 30.3750-65.8828Q30.3047-65.4609 30.3047-63.8438L30.3047-63.8438Q30.3047-62.3672 30.3750-61.9805Q30.4453-61.5938 30.5859-61.3828L30.5859-61.3828Q30.8672-61.1719 31.5352-61.1016Q32.2031-61.0313 36-61.0313L36-61.0313L40.9219-60.9609L41.2734-60.6094L41.3438-55.8281Q41.3438-52.7344 41.3086-51.8906Q41.2734-51.0469 41.2031-50.9766L41.2031-50.9766Q41.2031-50.9766 41.1680-50.9063Q41.1328-50.8359 41.1328-50.8359L41.1328-50.8359Q41.1328-50.7656 40.8516-50.5195Q40.5703-50.2734 40.5000-50.2734L40.5000-50.2734Q40.5000-50.2734 40.4297-50.2734Q40.3594-50.2734 40.3594-50.2031L40.3594-50.2031Q40.3594-50.1328 39.7617-50.1328Q39.1641-50.1328 37.5469-50.1328L37.5469-50.1328Q35.9297-50.1328 35.3320-50.1328Q34.7344-50.1328 34.7344-50.2031L34.7344-50.2031Q34.7344-50.2734 34.6641-50.2734Q34.5938-50.2734 34.5234-50.2734L34.5234-50.2734Q34.3125-50.2734 34.0313-50.3438Q33.7500-50.4141 33.6797-50.4844L33.6797-50.4844Q33.6797-50.5547 33.3984-50.6602Q33.1172-50.7656 33.1172-50.7656L33.1172-50.7656Q33.0469-50.7656 32.9766-50.8711Q32.9063-50.9766 32.6250-51.1875L32.6250-51.1875Q32.5547-51.2578 32.5195-51.2930Q32.4844-51.3281 32.4141-51.3281L32.4141-51.3281Q32.3438-51.3281 31.8867-51.8203Q31.4297-52.3125 31.2891-52.5938L31.2891-52.5938Q31.2188-52.6641 31.1484-52.7344Q31.0781-52.8047 31.0781-52.8750L31.0781-52.8750Q31.0078-52.9453 30.9727-52.9805Q30.9375-53.0156 30.9375-53.0859L30.9375-53.0859Q30.9375-53.0859 30.9023-53.1563Q30.8672-53.2266 30.8672-53.2969L30.8672-53.2969Q30.7969-53.2969 30.7617-53.4727Q30.7266-53.6484 30.6563-53.7891L30.6563-53.7891Q30.6563-54 30.5859-54.1055Q30.5156-54.2109 30.5156-54.2813L30.5156-54.2813Q30.5156-54.2813 30.4805-54.3867Q30.4453-54.4922 30.3750-54.6328L30.3750-54.6328Q30.3047-54.9844 30.1641-55.1953Q30.0234-55.4063 29.8125-55.4063L29.8125-55.4063Q29.7422-55.4766 29.7070-55.5117Q29.6719-55.5469 29.6719-55.5469L29.6719-55.5469Q29.6719-55.6172 29.1094-55.6172Q28.5469-55.6172 27.6328-55.6172L27.6328-55.6172Q26.6484-55.6172 26.1211-55.6172Q25.5938-55.6172 25.5938-55.5469L25.5938-55.5469Q25.5938-55.5469 25.5234-55.5117Q25.4531-55.4766 25.4531-55.4766L25.4531-55.4766Q25.1719-55.4766 25.0313-55.2305Q24.8906-54.9844 24.8906-54.4922L24.8906-54.4922Q24.8906-54.1406 24.9609-53.6836Q25.0313-53.2266 25.1016-53.1563L25.1016-53.1563Q25.1719-53.1563 25.2070-52.9805Q25.2422-52.8047 25.3125-52.5938L25.3125-52.5938Q25.3828-52.3125 25.4180-52.1367Q25.4531-51.9609 25.4531-51.8906L25.4531-51.8906Q25.5234-51.8906 25.5586-51.7500Q25.5938-51.6094 25.6641-51.4688L25.6641-51.4688Q25.6641-51.3281 25.6992-51.2227Q25.7344-51.1172 25.8047-51.1172L25.8047-51.1172Q25.8047-51.1172 25.8398-51.0117Q25.8750-50.9063 25.9453-50.8359L25.9453-50.8359Q25.9453-50.6953 25.9805-50.6250Q26.0156-50.5547 26.0859-50.5547L26.0859-50.5547Q26.0859-50.5547 26.1211-50.4844Q26.1563-50.4141 26.2266-50.2734L26.2266-50.2734Q26.2266-50.1328 26.2969-50.0625Q26.3672-49.9922 26.3672-49.9922L26.3672-49.9922Q26.4375-49.9219 26.4727-49.8516Q26.5078-49.7813 26.5781-49.7109L26.5781-49.7109Q26.5781-49.5703 26.6484-49.5000Q26.7188-49.4297 26.7188-49.4297L26.7188-49.4297Q26.7188-49.4297 26.7891-49.3594Q26.8594-49.2891 26.8594-49.2188L26.8594-49.2188Q26.8594-49.1484 26.9297-49.1133Q27-49.0781 27-49.0781L27-49.0781Q27.0703-49.0781 27.0703-49.0430Q27.0703-49.0078 27.0703-49.0078L27.0703-49.0078Q27-48.8672 28.0195-47.8477Q29.0391-46.8281 29.4609-46.6172L29.4609-46.6172Q29.5313-46.5469 29.6367-46.4766Q29.7422-46.4063 29.7422-46.3359L29.7422-46.3359Q29.7422-46.3359 29.8477-46.3008Q29.9531-46.2656 30.0234-46.1953L30.0234-46.1953Q30.0938-46.1953 30.1641-46.1602Q30.2344-46.1250 30.2344-46.1250L30.2344-46.1250Q30.2344-46.0547 30.3047-46.0195Q30.3750-45.9844 30.4453-45.9844L30.4453-45.9844Q30.5156-45.9141 30.5859-45.8789Q30.6563-45.8438 30.6563-45.8438L30.6563-45.8438Q30.6563-45.7734 30.7969-45.7383Q30.9375-45.7031 31.0781-45.6328L31.0781-45.6328Q31.2891-45.5625 31.4297-45.5273Q31.5703-45.4922 31.5703-45.4219L31.5703-45.4219Q31.6406-45.4219 31.7461-45.3516Q31.8516-45.2813 31.9922-45.2813L31.9922-45.2813Q32.0625-45.2813 32.1680-45.2461Q32.2734-45.2109 32.2734-45.2109L32.2734-45.2109Q32.2734-45.1406 32.4141-45.1055Q32.5547-45.0703 32.6953-45.0703L32.6953-45.0703Q32.9063-45 33.0820-44.9648Q33.2578-44.9297 33.3281-44.8594L33.3281-44.8594Q33.4688-44.7891 34.1367-44.6836Q34.8047-44.5781 35.0859-44.5781L35.0859-44.5781Q35.2266-44.5781 35.3320-44.5781Q35.4375-44.5781 35.4375-44.5078L35.4375-44.5078Q35.4375-44.5078 36.0703-44.4727Q36.7031-44.4375 37.8984-44.4375L37.8984-44.4375Q39.0938-44.4375 39.7266-44.4727Q40.3594-44.5078 40.3594-44.5078L40.3594-44.5078Q40.3594-44.5781 40.4297-44.5781Q40.5000-44.5781 40.5703-44.5781L40.5703-44.5781Q41.0625-44.5781 41.2383-44.9648Q41.4141-45.3516 41.4141-46.6172L41.4141-46.6172Q41.4141-47.1094 41.4141-47.4609Q41.4141-47.8125 41.4844-47.8125L41.4844-47.8125Q41.4844-47.8125 41.5195-47.9531Q41.5547-48.0938 41.6250-48.3047L41.6250-48.3047Q41.6250-48.4453 41.6953-48.5859Q41.7656-48.7266 41.7656-48.7266L41.7656-48.7266Q41.8359-48.7969 41.8711-48.8320Q41.9063-48.8672 41.9063-48.8672L41.9063-48.8672Q41.9063-49.0078 42.3281-49.3594Q42.7500-49.7109 42.8906-49.7813L42.8906-49.7813Q43.0313-49.7813 43.0664-49.8164Q43.1016-49.8516 43.1016-49.8516L43.1016-49.8516Q43.1016-49.9219 43.4883-49.9922Q43.8750-50.0625 44.9297-50.0625L44.9297-50.0625Q45.4922-50.0625 45.9141-50.0977Q46.3359-50.1328 46.3359-50.2031L46.3359-50.2031Q46.4063-50.2031 46.4414-50.2383Q46.4766-50.2734 46.5469-50.3438L46.5469-50.3438Q46.6172-50.3438 46.6875-50.4492Q46.7578-50.5547 46.7578-50.6953L46.7578-50.6953Q46.7578-50.7656 46.7930-50.8359Q46.8281-50.9063 46.8984-50.9063L46.8984-50.9063Q46.8984-50.9063 46.9336-53.1211Q46.9688-55.3359 46.9688-58.3594L46.9688-58.3594Q46.9688-61.4531 46.9336-63.6328Q46.8984-65.8125 46.8984-65.8125L46.8984-65.8125Q46.8281-65.8125 46.7930-65.9180Q46.7578-66.0234 46.7578-66.0938L46.7578-66.0938Q46.7578-66.2344 46.6875-66.3398Q46.6172-66.4453 46.5469-66.4453L46.5469-66.4453Q46.4766-66.5156 46.4414-66.5508Q46.4063-66.5859 46.3359-66.5859L46.3359-66.5859Q46.3359-66.6563 44.0156-66.6563L44.0156-66.6563Q41.6250-66.6563 38.8125-66.6914Q36-66.7266 33.6094-66.6563L33.6094-66.6563Q31.1484-66.6563 31.0781-66.6563L31.0781-66.6563ZM9.8438-66.5859L9.8438-66.5859Q9.8438-66.5156 9.8086-66.5156Q9.7734-66.5156 9.7031-66.5156L9.7031-66.5156Q9.6328-66.5156 9.4922-66.4102Q9.3516-66.3047 9.2109-66.0938L9.2109-66.0938Q9.1406-66.0234 9.1055-65.8477Q9.0703-65.6719 9.0703-65.3203L9.0703-65.3203Q9.0703-64.6875 9-64.4766Q8.9297-64.2656 8.7891-64.1250L8.7891-64.1250L8.5781-63.9141L5.0625-63.9141Q3.0938-63.9141 2.2852-63.8789Q1.4766-63.8438 1.4766-63.7734L1.4766-63.7734Q1.4063-63.7734 1.3359-63.7031Q1.2656-63.6328 1.1953-63.6328L1.1953-63.6328Q1.1250-63.5625 1.0547-63.5273Q0.9844-63.4922 0.9844-63.4219L0.9844-63.4219Q0.9844-63.4219 0.9844-63.3867Q0.9844-63.3516 0.9141-63.2813L0.9141-63.2813Q0.8438-63.2813 0.8438-60.8906L0.8438-60.8906Q0.8438-58.5000 0.8438-55.6172Q0.8438-52.7344 0.8438-50.3438L0.8438-50.3438Q0.8438-47.9531 0.9141-47.9531L0.9141-47.9531Q0.9141-47.8828 0.9844-47.8477Q1.0547-47.8125 1.0547-47.7422L1.0547-47.7422Q1.1250-47.6719 1.1953-47.6016Q1.2656-47.5313 1.4063-47.5313L1.4063-47.5313Q1.4766-47.4609 1.5820-47.4609Q1.6875-47.4609 1.6875-47.3906L1.6875-47.3906Q1.6875-47.3906 2.6016-47.3555Q3.5156-47.3203 4.9219-47.3203L4.9219-47.3203Q8.0859-47.3203 8.5430-47.2148Q9-47.1094 9.0703-46.1250L9.0703-46.1250Q9.0703-45.4922 9.2109-45.1406Q9.3516-44.7891 9.6328-44.7188L9.6328-44.7188Q9.7734-44.7188 11.7422-44.7188L11.7422-44.7188Q13.7109-44.6484 16.0313-44.6484Q18.3516-44.6484 20.2500-44.7188L20.2500-44.7188Q22.2188-44.7188 22.2891-44.7188L22.2891-44.7188Q22.7109-44.9297 22.7813-45.9141Q22.8516-46.8984 22.7813-54.4922L22.7813-54.4922Q22.7813-61.7344 22.7461-62.6484Q22.7109-63.5625 22.3594-63.6328L22.3594-63.6328Q22.2891-63.7031 22.2539-63.7383Q22.2188-63.7734 22.1484-63.7734L22.1484-63.7734Q22.1484-63.8438 21.7266-63.8438Q21.3047-63.8438 20.6016-63.9141L20.6016-63.9141L19.1250-63.9141L18.9141-64.1250Q18.7734-64.2656 18.7383-64.4414Q18.7031-64.6172 18.7031-65.1797L18.7031-65.1797Q18.6328-65.5313 18.6328-65.7422Q18.6328-65.9531 18.5625-65.9531L18.5625-65.9531Q18.5625-65.9531 18.5273-66.0234Q18.4922-66.0938 18.4219-66.2344L18.4219-66.2344Q18.3516-66.3047 18.2461-66.3750Q18.1406-66.4453 18-66.4453L18-66.4453Q17.9297-66.5156 17.8594-66.5156Q17.7891-66.5156 17.7891-66.5859L17.7891-66.5859Q17.7891-66.5859 16.6641-66.6211Q15.5391-66.6563 13.8516-66.6563L13.8516-66.6563Q11.8828-66.6563 10.8633-66.6211Q9.8438-66.5859 9.8438-66.5859L9.8438-66.5859ZM51.1172-66.5859L51.1172-66.5859Q51.1172-66.5156 51.0820-66.5156Q51.0469-66.5156 50.9766-66.5156L50.9766-66.5156Q50.6250-66.5156 50.5195-65.9883Q50.4141-65.4609 50.4141-63.8438L50.4141-63.8438Q50.4141-61.8047 50.6602-61.4180Q50.9063-61.0313 52.1016-61.0313L52.1016-61.0313Q52.3125-61.0313 52.4531-60.9961Q52.5938-60.9609 52.6641-60.8906L52.6641-60.8906Q52.7344-60.8906 52.7695-60.8555Q52.8047-60.8203 52.8047-60.8203L52.8047-60.8203Q53.0156-60.8203 53.0508-59.9414Q53.0859-59.0625 53.0859-55.5469L53.0859-55.5469Q53.0859-51.8203 53.0508-51.1172Q53.0156-50.4141 52.8047-50.3438L52.8047-50.3438Q52.7344-50.2734 52.6992-50.2383Q52.6641-50.2031 52.5938-50.2031L52.5938-50.2031Q52.5938-50.1328 52.1367-50.1328Q51.6797-50.1328 51.0469-50.0625L51.0469-50.0625L49.5703-50.0625L49.2891-49.8516Q49.2188-49.7109 49.1484-49.6055Q49.0781-49.5000 49.0781-49.4297L49.0781-49.4297Q49.0781-49.3594 49.0781-49.2891Q49.0781-49.2188 49.0078-49.2188L49.0078-49.2188Q49.0078-49.2188 48.9727-48.7266Q48.9375-48.2344 48.9375-47.3906L48.9375-47.3906Q48.9375-46.4766 48.9727-46.0195Q49.0078-45.5625 49.0078-45.5625L49.0078-45.5625Q49.0781-45.5625 49.0781-45.4922Q49.0781-45.4219 49.0781-45.3516L49.0781-45.3516Q49.0781-45.1406 49.2188-44.9648Q49.3594-44.7891 49.5000-44.7188L49.5000-44.7188Q49.5703-44.6484 52.0313-44.6484L52.0313-44.6484Q54.4922-44.6484 57.4805-44.6133Q60.4688-44.5781 63-44.5781L63-44.5781Q65.6016-44.6484 65.8828-44.6484L65.8828-44.6484Q66.5859-44.7188 66.7266-45.1055Q66.8672-45.4922 66.8672-47.5313L66.8672-47.5313Q66.8672-48.3047 66.9023-48.8672Q66.9375-49.4297 66.9375-49.4297L66.9375-49.4297Q66.9375-49.4297 67.0078-49.5000Q67.0781-49.5703 67.0781-49.6406L67.0781-49.6406Q67.1484-49.9219 67.4297-49.9922Q67.7109-50.0625 68.9766-50.0625L68.9766-50.0625L70.4531-50.1328L70.6641-50.3438Q70.8750-50.5547 70.9453-50.9414Q71.0156-51.3281 71.0156-52.8750L71.0156-52.8750Q71.0156-54.1406 70.9453-54.7383Q70.8750-55.3359 70.8047-55.3359L70.8047-55.3359Q70.7344-55.3359 70.6992-55.3711Q70.6641-55.4063 70.5938-55.4766L70.5938-55.4766Q70.4531-55.6172 70.2070-55.6172Q69.9609-55.6172 68.9766-55.6875L68.9766-55.6875Q67.8516-55.6875 67.5352-55.7578Q67.2188-55.8281 67.0781-56.0391L67.0781-56.0391Q67.0781-56.1797 67.0078-56.2148Q66.9375-56.2500 66.9375-56.2500L66.9375-56.2500Q66.9375-56.2500 66.9023-57.6211Q66.8672-58.9922 66.8672-60.9609L66.8672-60.9609Q66.8672-64.9688 66.7969-65.7422Q66.7266-66.5156 66.2344-66.5156L66.2344-66.5156Q66.1641-66.5156 66.1289-66.5156Q66.0938-66.5156 66.0938-66.5859L66.0938-66.5859Q66.0938-66.5859 64.1953-66.6211Q62.2969-66.6563 58.6406-66.6563L58.6406-66.6563Q54.9141-66.6563 53.0156-66.6211Q51.1172-66.5859 51.1172-66.5859L51.1172-66.5859ZM62.0859-59.4141L62.0859-59.4141Q62.1563-59.3438 62.2266-59.3086Q62.2969-59.2734 62.2266-59.2734L62.2266-59.2734Q62.2266-59.2734 62.2266-59.2734Q62.2266-59.2734 62.2969-59.2031L62.2969-59.2031Q62.3672-59.2031 62.4023-59.1328Q62.4375-59.0625 62.4375-59.0625L62.4375-59.0625Q62.4375-58.9922 62.4727-58.9219Q62.5078-58.8516 62.5781-58.7813L62.5781-58.7813Q62.6484-58.7109 62.6836-56.9531Q62.7188-55.1953 62.5781-55.1250L62.5781-55.1250Q62.5781-55.1250 62.5430-55.0898Q62.5078-55.0547 62.5078-55.0547L62.5078-55.0547Q62.5078-54.9141 62.2266-54.6680Q61.9453-54.4219 61.7344-54.4219L61.7344-54.4219Q61.6641-54.4219 61.5586-54.3867Q61.4531-54.3516 61.4531-54.2813L61.4531-54.2813Q61.4531-54.2813 61.0313-54.2813Q60.6094-54.2813 60.0469-54.2813L60.0469-54.2813Q59.3438-54.2813 58.9570-54.2813Q58.5703-54.2813 58.5703-54.3516L58.5703-54.3516Q58.5703-54.3516 58.5000-54.3867Q58.4297-54.4219 58.2891-54.4219L58.2891-54.4219Q58.2188-54.4219 58.0781-54.4922Q57.9375-54.5625 57.7266-54.7031L57.7266-54.7031L57.4453-55.0547L57.4453-56.9531Q57.4453-58.2188 57.4453-58.5352Q57.4453-58.8516 57.5156-58.9219L57.5156-58.9219Q57.5859-58.9922 57.6211-59.0625Q57.6563-59.1328 57.7266-59.2031L57.7266-59.2031Q57.7266-59.2734 57.7969-59.3438Q57.8672-59.4141 57.9375-59.4141L57.9375-59.4141Q58.0078-59.4141 58.0781-59.4492Q58.1484-59.4844 58.2188-59.4844L58.2188-59.4844Q58.4297-59.6250 60.1875-59.5547Q61.9453-59.4844 62.0859-59.4141L62.0859-59.4141ZM7.9453-58.2188L7.9453-58.2188Q8.0859-58.1484 8.1914-58.1133Q8.2969-58.0781 8.3672-58.0781L8.3672-58.0781Q8.3672-58.0781 8.4023-58.0430Q8.4375-58.0078 8.5078-58.0078L8.5078-58.0078Q8.5781-57.9375 8.6133-57.9023Q8.6484-57.8672 8.7188-57.7969L8.7188-57.7969Q8.7188-57.7266 8.7539-57.6914Q8.7891-57.6563 8.8594-57.5859L8.8594-57.5859Q8.9297-57.5156 9-56.7773Q9.0703-56.0391 9.0703-55.1250L9.0703-55.1250Q9-53.5781 8.6133-53.2617Q8.2266-52.9453 6.2578-52.9453L6.2578-52.9453Q5.2734-52.9453 4.9219-52.9453Q4.5703-52.9453 4.5703-53.0156L4.5703-53.0156Q4.5703-53.0156 4.5000-53.0508Q4.4297-53.0859 4.4297-53.0859L4.4297-53.0859Q4.2188-53.0859 4.0430-53.2969Q3.8672-53.5078 3.8672-53.6484L3.8672-53.6484Q3.7969-53.7891 3.7617-53.8242Q3.7266-53.8594 3.7266-53.8594L3.7266-53.8594Q3.7266-53.8594 3.6914-54.3867Q3.6563-54.9141 3.6563-55.6172L3.6563-55.6172Q3.6563-56.2500 3.6914-56.7773Q3.7266-57.3047 3.7266-57.3047L3.7266-57.3047Q3.7266-57.3047 3.7617-57.3398Q3.7969-57.3750 3.8672-57.5156L3.8672-57.5156Q3.8672-57.7266 4.1133-57.9375Q4.3594-58.1484 4.5703-58.2188L4.5703-58.2188Q4.8516-58.2891 6.1875-58.2891Q7.5234-58.2891 7.9453-58.2188ZM18.9141-58.2188L18.9141-58.2188Q19.1953-58.1484 19.3711-58.0430Q19.5469-57.9375 19.7578-57.5859L19.7578-57.5859Q20.0391-57.3047 20.0391-55.4414Q20.0391-53.5781 19.8281-53.5781L19.8281-53.5781Q19.7578-53.5781 19.7227-53.5430Q19.6875-53.5078 19.6875-53.4375L19.6875-53.4375Q19.6875-53.3672 19.5820-53.2969Q19.4766-53.2266 19.4063-53.1563L19.4063-53.1563Q19.2656-53.1563 19.1602-53.0859Q19.0547-53.0156 19.0547-53.0156L19.0547-53.0156Q18.9844-52.9453 17.2617-52.9453Q15.5391-52.9453 15.4688-53.0156L15.4688-53.0156Q15.4688-53.0156 15.3984-53.0508Q15.3281-53.0859 15.2578-53.1563L15.2578-53.1563Q15.0469-53.1563 14.9766-53.2617Q14.9063-53.3672 14.8359-53.5078L14.8359-53.5078Q14.8359-53.5781 14.8008-53.6484Q14.7656-53.7188 14.7656-53.7891L14.7656-53.7891Q14.6250-53.8594 14.6602-55.6523Q14.6953-57.4453 14.8359-57.5859L14.8359-57.5859Q14.9063-57.6563 14.9414-57.7266Q14.9766-57.7969 14.9766-57.7969L14.9766-57.7969Q14.9766-57.8672 15.0117-57.9023Q15.0469-57.9375 15.0469-57.9375L15.0469-57.9375Q15.1172-57.9375 15.1523-57.9727Q15.1875-58.0078 15.2578-58.0078L15.2578-58.0078Q15.3281-58.2188 16.8047-58.2891Q18.2813-58.3594 18.9141-58.2188L18.9141-58.2188ZM10.6875-42.4688L10.6875-42.4688Q10.6172-42.4688 10.5117-42.4336Q10.4063-42.3984 10.4063-42.3984L10.4063-42.3984Q10.4063-42.3281 10.3711-42.3281Q10.3359-42.3281 10.2656-42.3281L10.2656-42.3281Q9.9844-42.3281 9.3164-42.1875Q8.6484-42.0469 8.6484-42.0469L8.6484-42.0469Q8.6484-41.9766 8.5078-41.9414Q8.3672-41.9063 8.1563-41.8359L8.1563-41.8359Q8.0156-41.8359 7.9102-41.8008Q7.8047-41.7656 7.8047-41.6953L7.8047-41.6953Q7.8047-41.6953 7.6992-41.6602Q7.5938-41.6250 7.4531-41.5547L7.4531-41.5547Q7.3125-41.5547 7.2070-41.5195Q7.1016-41.4844 7.1016-41.4141L7.1016-41.4141Q7.1016-41.4141 6.9961-41.3438Q6.8906-41.2734 6.7500-41.2734L6.7500-41.2734Q6.6094-41.2031 6.5039-41.1680Q6.3984-41.1328 6.3984-41.0625L6.3984-41.0625Q6.3984-41.0625 6.3281-41.0273Q6.2578-40.9922 6.1875-40.9219L6.1875-40.9219Q6.1172-40.9219 6.0117-40.8516Q5.9063-40.7813 5.8359-40.7109L5.8359-40.7109Q5.6250-40.5703 5.5547-40.5000Q5.4844-40.4297 5.4844-40.5000L5.4844-40.5000Q5.4844-40.5000 5.4141-40.4297Q5.3438-40.3594 5.2734-40.2891L5.2734-40.2891Q5.1328-40.2188 5.0625-40.1484Q4.9922-40.0781 4.9922-40.0781L4.9922-40.0781Q4.9219-40.0781 4.8867-40.0430Q4.8516-40.0078 4.7813-39.9375L4.7813-39.9375Q4.7109-39.8672 4.5703-39.7266Q4.4297-39.5859 4.2891-39.4453L4.2891-39.4453Q4.1484-39.3047 4.0430-39.1641Q3.9375-39.0234 3.8672-38.9531L3.8672-38.9531Q3.7969-38.8828 3.6914-38.8125Q3.5859-38.7422 3.5156-38.6719L3.5156-38.6719Q3.5156-38.6719 3.4102-38.5664Q3.3047-38.4609 3.3047-38.3906L3.3047-38.3906Q3.2344-38.2500 3.1641-38.1797Q3.0938-38.1094 3.0938-38.1094L3.0938-38.1094Q3.0938-38.1094 3.0586-38.0742Q3.0234-38.0391 3.0234-38.0391L3.0234-38.0391Q3.0234-37.9688 2.9883-37.8984Q2.9531-37.8281 2.8828-37.8281L2.8828-37.8281Q2.8125-37.7578 2.7773-37.7227Q2.7422-37.6875 2.7422-37.6172L2.7422-37.6172Q2.7422-37.6172 2.7070-37.5469Q2.6719-37.4766 2.6016-37.4766L2.6016-37.4766Q2.5313-37.4063 2.4609-37.3359Q2.3906-37.2656 2.3906-37.1250L2.3906-37.1250Q2.3203-37.0547 2.2852-36.9844Q2.2500-36.9141 2.2500-36.9141L2.2500-36.9141Q2.1797-36.9141 2.1445-36.7734Q2.1094-36.6328 2.0391-36.4922L2.0391-36.4922Q1.9688-36.3516 1.9336-36.2461Q1.8984-36.1406 1.8984-36.1406L1.8984-36.1406Q1.8281-36.1406 1.7930-36.0352Q1.7578-35.9297 1.7578-35.7891L1.7578-35.7891Q1.6875-35.6484 1.6523-35.5078Q1.6172-35.3672 1.5469-35.3672L1.5469-35.3672Q1.4766-35.3672 1.3711-34.9453Q1.2656-34.5234 1.2656-34.3125L1.2656-34.3125Q1.2656-34.2422 1.2656-34.1719Q1.2656-34.1016 1.2656-34.1016L1.2656-34.1016Q1.1953-34.1016 1.1602-33.9258Q1.1250-33.7500 1.0547-33.4688L1.0547-33.4688Q1.0547-33.2578 0.9844-33.0820Q0.9141-32.9063 0.9141-32.8359L0.9141-32.8359Q0.8438-32.8359 0.8438-30.9375L0.8438-30.9375Q0.7734-29.1094 0.8086-26.8945Q0.8438-24.6797 0.8438-22.7813L0.8438-22.7813Q0.9141-20.9531 0.9844-20.8828L0.9844-20.8828Q1.0547-20.8125 1.1250-20.7422Q1.1953-20.6719 1.1953-20.6719L1.1953-20.6719Q1.2656-20.6719 1.3008-20.6719Q1.3359-20.6719 1.3359-20.6016L1.3359-20.6016Q1.3359-20.5313 3.5156-20.5313Q5.6953-20.5313 5.7656-20.6016L5.7656-20.6016Q5.7656-20.6016 5.8359-20.6719Q5.9063-20.7422 5.9766-20.8125L5.9766-20.8125Q6.0469-20.8125 6.1172-20.8828Q6.1875-20.9531 6.1875-21.0234L6.1875-21.0234Q6.1875-21.0938 6.2227-21.1289Q6.2578-21.1641 6.2578-21.1641L6.2578-21.1641Q6.3281-21.1641 6.3633-22.3945Q6.3984-23.6250 6.3984-27.0703L6.3984-27.0703Q6.4688-31.2188 6.5039-32.2734Q6.5391-33.3281 6.6094-33.3281L6.6094-33.3281Q6.6797-33.3281 6.7148-33.3984Q6.7500-33.4688 6.7500-33.6094L6.7500-33.6094Q6.8203-33.7500 6.8555-33.8555Q6.8906-33.9609 6.8906-33.9609L6.8906-33.9609Q6.9609-33.9609 6.9961-34.0313Q7.0313-34.1016 7.0313-34.1719L7.0313-34.1719Q7.1016-34.2422 7.1367-34.3125Q7.1719-34.3828 7.1719-34.3828L7.1719-34.3828Q7.2422-34.3828 7.2773-34.4180Q7.3125-34.4531 7.3125-34.5234L7.3125-34.5234Q7.3828-34.7344 7.8750-35.2969Q8.3672-35.8594 8.5781-35.9297L8.5781-35.9297Q8.6484-35.9297 8.6836-35.9648Q8.7188-36 8.7188-36L8.7188-36Q8.7188-36.0703 8.7891-36.1055Q8.8594-36.1406 9-36.2109L9-36.2109Q9.1406-36.2813 9.2109-36.3164Q9.2813-36.3516 9.2813-36.4219L9.2813-36.4219Q9.2813-36.4219 9.3516-36.4570Q9.4219-36.4922 9.5625-36.4922L9.5625-36.4922Q9.6328-36.5625 9.7383-36.5977Q9.8438-36.6328 9.9141-36.6328L9.9141-36.6328Q10.0547-36.7734 10.8281-36.8438Q11.6016-36.9141 13.5703-36.9141L13.5703-36.9141Q15.7500-36.9141 16.3477-36.8086Q16.9453-36.7031 16.9453-36.4219L16.9453-36.4219Q16.9453-36.4219 16.9805-36.3516Q17.0156-36.2813 17.0156-36.2813L17.0156-36.2813Q17.0859-36.2813 17.1211-36.1758Q17.1563-36.0703 17.1563-35.9297L17.1563-35.9297Q17.2266-35.7188 17.2617-35.6133Q17.2969-35.5078 17.2969-35.5078L17.2969-35.5078Q17.2969-35.5078 17.3320-35.1563Q17.3672-34.8047 17.3672-34.2422L17.3672-34.2422Q17.3672-33.6797 17.3320-33.3633Q17.2969-33.0469 17.2969-33.0469L17.2969-33.0469Q17.2266-33.0469 17.2266-32.9766Q17.2266-32.9063 17.2266-32.7656L17.2266-32.7656Q17.2266-32.4141 16.9805-32.0977Q16.7344-31.7813 16.3828-31.7109L16.3828-31.7109Q16.3125-31.7109 16.2070-31.6758Q16.1016-31.6406 16.1016-31.6406L16.1016-31.6406Q16.1016-31.6406 15.2578-31.6055Q14.4141-31.5703 13.2188-31.5703L13.2188-31.5703Q10.6172-31.5703 10.0547-31.4648Q9.4922-31.3594 9.4922-30.7969L9.4922-30.7969Q9.4922-30.6563 9.4922-30.5859Q9.4922-30.5156 9.4219-30.5156L9.4219-30.5156Q9.4219-30.5156 9.3867-30.0234Q9.3516-29.5313 9.3516-28.6172L9.3516-28.6172Q9.3516-27.7031 9.3867-27.2109Q9.4219-26.7188 9.4219-26.7188L9.4219-26.7188Q9.4922-26.7188 9.4922-26.6836Q9.4922-26.6484 9.4922-26.6484L9.4922-26.6484Q9.4922-26.4375 9.7383-26.2617Q9.9844-26.0859 10.2656-26.0859L10.2656-26.0859Q10.3359-26.0859 10.4414-26.0859Q10.5469-26.0859 10.5469-26.0156L10.5469-26.0156Q10.5469-26.0156 11.2500-25.9805Q11.9531-25.9453 13.2891-25.9453L13.2891-25.9453Q14.6250-25.9453 15.4336-25.9453Q16.2422-25.9453 16.3828-25.8750L16.3828-25.8750Q16.7344-25.8047 16.9805-25.4883Q17.2266-25.1719 17.2266-24.8203L17.2266-24.8203Q17.2266-24.7500 17.2266-24.7148Q17.2266-24.6797 17.2969-24.6797L17.2969-24.6797Q17.2969-24.6797 17.3320-24.1523Q17.3672-23.6250 17.3672-22.8516L17.3672-22.8516Q17.3672-21.3047 17.4375-20.9883Q17.5078-20.6719 17.8594-20.6719L17.8594-20.6719Q17.9297-20.6719 17.9648-20.6719Q18-20.6719 18-20.6016L18-20.6016Q18.0703-20.5313 18.4922-20.5313Q18.9141-20.5313 20.1797-20.5313L20.1797-20.5313L22.2891-20.5313L22.7813-21.0234L22.7813-28.4063Q22.8516-31.5000 22.8164-33.7500Q22.7813-36 22.7813-36.1406L22.7813-36.1406Q22.7813-36.3516 22.6055-36.6328Q22.4297-36.9141 22.2891-36.9141L22.2891-36.9141Q22.2188-36.9141 22.1836-36.9141Q22.1484-36.9141 22.1484-36.9844L22.1484-36.9844Q22.1484-37.0547 21.8320-37.0547Q21.5156-37.0547 20.8125-37.1250L20.8125-37.1250Q19.8984-37.1250 19.3359-37.1953Q18.7734-37.2656 18.7734-37.3359L18.7734-37.3359Q18.7734-37.3359 18.7383-37.3711Q18.7031-37.4063 18.6328-37.4766L18.6328-37.4766Q18.5625-37.4766 18.4570-37.5820Q18.3516-37.6875 18.0703-37.9688L18.0703-37.9688Q17.9297-38.0391 17.8594-38.1445Q17.7891-38.2500 17.7891-38.2500L17.7891-38.2500Q17.7891-38.3203 17.7539-38.3555Q17.7188-38.3906 17.6484-38.4609L17.6484-38.4609Q17.5078-38.6016 17.4375-39.2344Q17.3672-39.8672 17.3672-40.7109L17.3672-40.7109Q17.3672-41.2031 17.3320-41.4844Q17.2969-41.7656 17.2969-41.7656L17.2969-41.7656Q17.2266-41.7656 17.2266-41.8008Q17.2266-41.8359 17.2266-41.9063L17.2266-41.9063Q17.2266-41.9766 17.1563-42.0469Q17.0859-42.1172 16.9453-42.2578L16.9453-42.2578L16.7344-42.4688L13.8516-42.4688Q12.6563-42.4688 11.7422-42.4688Q10.8281-42.4688 10.6875-42.4688L10.6875-42.4688ZM27.1406-42.4688L27.1406-42.4688Q27.0703-42.4688 27-42.4336Q26.9297-42.3984 26.9297-42.3984L26.9297-42.3984Q26.9297-42.3281 26.8242-42.2930Q26.7188-42.2578 26.5781-42.2578L26.5781-42.2578Q26.2969-42.1172 25.8750-41.7305Q25.4531-41.3438 25.3125-40.9922L25.3125-40.9922Q25.2422-40.8516 25.2070-40.7461Q25.1719-40.6406 25.1016-40.6406L25.1016-40.6406Q25.0313-40.5703 24.9609-38.6016L24.9609-38.6016Q24.8906-36.6328 24.8906-34.2422Q24.8906-31.8516 24.9609-29.8828L24.9609-29.8828Q25.0313-27.9141 25.1016-27.8438L25.1016-27.8438Q25.1719-27.8438 25.2070-27.7383Q25.2422-27.6328 25.2422-27.5625L25.2422-27.5625Q25.3125-27.4922 25.3477-27.4219Q25.3828-27.3516 25.4531-27.3516L25.4531-27.3516Q25.4531-27.3516 25.4531-27.3164Q25.4531-27.2813 25.4531-27.2813L25.4531-27.2813Q25.4531-27.2109 25.4531-27.2109Q25.4531-27.2109 25.4531-27.2109L25.4531-27.2109Q25.5234-27.2109 25.5586-27.1406Q25.5938-27.0703 25.5938-27L25.5938-27Q25.6641-26.9297 25.7344-26.8594Q25.8047-26.7891 25.8750-26.7188L25.8750-26.7188Q25.9453-26.7188 26.0508-26.6484Q26.1563-26.5781 26.2266-26.5078L26.2266-26.5078Q26.2969-26.5078 26.3320-26.4375Q26.3672-26.3672 26.4375-26.3672L26.4375-26.3672Q26.5781-26.2266 26.8945-26.1563Q27.2109-26.0859 27.4922-26.0859L27.4922-26.0859Q27.5625-26.0859 27.6680-26.0859Q27.7734-26.0859 27.7734-26.0156L27.7734-26.0156Q27.7734-26.0156 28.0547-25.9805Q28.3359-25.9453 28.8281-25.9453L28.8281-25.9453Q29.5313-25.9453 29.8828-25.9102Q30.2344-25.8750 30.3047-25.7344L30.3047-25.7344Q30.3047-25.7344 30.3398-25.0664Q30.3750-24.3984 30.3750-23.4844L30.3750-23.4844Q30.4453-21.7266 30.5156-21.2695Q30.5859-20.8125 30.7969-20.7422L30.7969-20.7422Q30.8672-20.6719 30.9023-20.6367Q30.9375-20.6016 31.0078-20.6016L31.0078-20.6016Q31.0078-20.5313 31.5352-20.5313Q32.0625-20.5313 33.1875-20.5313L33.1875-20.5313L35.2969-20.5313L35.5781-20.7422Q35.6484-20.8125 35.7188-20.9180Q35.7891-21.0234 35.7891-21.0234L35.7891-21.0234Q35.7891-21.0938 35.8242-21.1289Q35.8594-21.1641 35.8594-21.1641L35.8594-21.1641Q35.9297-21.1641 35.9648-21.6563Q36-22.1484 36-23.3438L36-23.3438Q36-24.6094 36.0352-25.1016Q36.0703-25.5938 36.1406-25.5938L36.1406-25.5938Q36.1406-25.5938 36.1758-25.6289Q36.2109-25.6641 36.2109-25.7344L36.2109-25.7344Q36.2109-25.8750 36.6328-25.9102Q37.0547-25.9453 38.1797-25.9453L38.1797-25.9453Q39.8672-25.9453 40.2891-25.8398Q40.7109-25.7344 41.2031-25.1719L41.2031-25.1719Q41.2734-25.1016 41.2734-24.7148Q41.2734-24.3281 41.3438-23.0625L41.3438-23.0625Q41.3438-21.9375 41.3789-21.5156Q41.4141-21.0938 41.4844-21.0938L41.4844-21.0938Q41.4844-21.0938 41.5195-21.0586Q41.5547-21.0234 41.5547-20.9531L41.5547-20.9531Q41.5547-20.8828 41.5898-20.8477Q41.6250-20.8125 41.6953-20.7422L41.6953-20.7422Q41.7656-20.7422 41.8359-20.6719Q41.9063-20.6016 41.9063-20.6016L41.9063-20.6016Q41.9766-20.5313 44.1563-20.5313Q46.3359-20.5313 46.3359-20.6016L46.3359-20.6016Q46.3359-20.6719 46.3711-20.6719Q46.4063-20.6719 46.4766-20.6719L46.4766-20.6719Q46.5469-20.6719 46.6875-20.8125Q46.8281-20.9531 46.8281-21.0938L46.8281-21.0938Q46.8281-21.1641 46.8281-21.1992Q46.8281-21.2344 46.8984-21.2344L46.8984-21.2344Q46.8984-21.2344 46.9336-22.2539Q46.9688-23.2734 46.9688-25.3125L46.9688-25.3125Q46.9688-27 46.9336-28.1953Q46.8984-29.3906 46.8984-29.3906L46.8984-29.3906Q46.8984-29.3906 46.8281-29.4609Q46.7578-29.5313 46.7578-29.6719L46.7578-29.6719Q46.6875-29.9531 46.3359-30.0586Q45.9844-30.1641 44.9297-30.2344L44.9297-30.2344Q44.4375-30.2344 44.0508-30.2344Q43.6641-30.2344 43.6641-30.2344L43.6641-30.2344Q43.6641-30.3047 43.5586-30.3750Q43.4531-30.4453 43.3125-30.5859L43.3125-30.5859Q42.9609-30.9375 42.8906-31.5352Q42.8203-32.1328 42.8203-35.0859L42.8203-35.0859Q42.8203-36.5625 42.8203-37.5117Q42.8203-38.4609 42.7500-38.4609L42.7500-38.4609Q42.7500-38.4609 42.7148-38.5313Q42.6797-38.6016 42.6797-38.7422L42.6797-38.7422Q42.6797-38.8125 42.6094-38.9531Q42.5391-39.0938 42.4688-39.1641L42.4688-39.1641Q42.3984-39.2344 42.3281-39.3047Q42.2578-39.3750 42.2578-39.4453L42.2578-39.4453Q42.1172-39.6563 41.4492-39.7266Q40.7813-39.7969 38.9531-39.7969L38.9531-39.7969Q37.9688-39.7969 37.2656-39.7969Q36.5625-39.7969 36.5625-39.8672L36.5625-39.8672Q36.5625-39.8672 36.5273-39.9023Q36.4922-39.9375 36.4219-39.9375L36.4219-39.9375Q36.3516-39.9375 36.2813-40.0078Q36.2109-40.0781 36.2109-40.0781L36.2109-40.0781Q36.2109-40.1484 36.1758-40.1836Q36.1406-40.2188 36.1406-40.2188L36.1406-40.2188Q36.0703-40.2188 36.0352-40.4297Q36-40.6406 36-41.0625L36-41.0625Q36-41.4844 35.9648-41.6953Q35.9297-41.9063 35.8594-41.9063L35.8594-41.9063Q35.8594-41.9063 35.8242-41.9414Q35.7891-41.9766 35.7891-42.0469L35.7891-42.0469Q35.7891-42.0469 35.7539-42.1523Q35.7188-42.2578 35.6484-42.3281L35.6484-42.3281L35.5078-42.4688L31.4297-42.4688Q29.7422-42.4688 28.4766-42.4688Q27.2109-42.4688 27.1406-42.4688L27.1406-42.4688ZM49.7109-42.4688L49.7109-42.4688Q49.5000-42.3984 49.3242-42.1523Q49.1484-41.9063 49.1484-41.6953L49.1484-41.6953Q49.0781-41.5547 49.0781-41.4492Q49.0781-41.3438 49.0078-41.3438L49.0078-41.3438Q49.0078-41.3438 48.9727-38.4961Q48.9375-35.6484 48.9375-31.4297L48.9375-31.4297Q48.9375-27.2109 48.9727-24.3633Q49.0078-21.5156 49.0078-21.5156L49.0078-21.5156Q49.0781-21.5156 49.0781-21.4102Q49.0781-21.3047 49.1484-21.2344L49.1484-21.2344Q49.1484-21.0938 49.1836-20.9883Q49.2188-20.8828 49.2891-20.8125L49.2891-20.8125Q49.3594-20.8125 49.4297-20.7422Q49.5000-20.6719 49.5703-20.6719L49.5703-20.6719Q49.7109-20.5313 51.7500-20.4961Q53.7891-20.4609 53.8594-20.6016L53.8594-20.6016Q53.8594-20.6719 53.8945-20.6719Q53.9297-20.6719 54-20.6719L54-20.6719Q54.0703-20.6719 54.2109-20.8125Q54.3516-20.9531 54.4922-21.1641L54.4922-21.1641Q54.4922-21.1641 54.5273-23.3438Q54.5625-25.5234 54.5625-28.6875L54.5625-28.6875Q54.6328-33.8906 54.6328-35.0156Q54.6328-36.1406 54.7031-36.2109L54.7031-36.2109Q54.7734-36.2813 54.8086-36.3516Q54.8438-36.4219 54.8438-36.4219L54.8438-36.4219Q54.8438-36.4922 54.8789-36.5273Q54.9141-36.5625 54.9844-36.5625L54.9844-36.5625Q55.0547-36.6328 55.1250-36.6680Q55.1953-36.7031 55.1953-36.7734L55.1953-36.7734Q55.2656-36.8438 56.0742-36.8438Q56.8828-36.8438 59.9766-36.8438L59.9766-36.8438L64.6875-36.8438L64.9688-36.5625Q65.1094-36.4922 65.1797-36.3516Q65.2500-36.2109 65.2500-36.1406L65.2500-36.1406Q65.3203-36.0703 65.3555-36Q65.3906-35.9297 65.3906-35.8594L65.3906-35.8594Q65.4609-35.8594 65.4961-34.1367Q65.5313-32.4141 65.5313-28.4766L65.5313-28.4766Q65.5313-22.5000 65.6016-21.6563Q65.6719-20.8125 65.9531-20.7422L65.9531-20.7422Q66.0234-20.6719 66.0586-20.6367Q66.0938-20.6016 66.0938-20.6016L66.0938-20.6016Q66.1641-20.5313 68.2383-20.5313Q70.3125-20.5313 70.3125-20.6016L70.3125-20.6016Q70.3125-20.6719 70.3828-20.6719Q70.4531-20.6719 70.4531-20.6719L70.4531-20.6719Q70.6641-20.6719 70.7695-20.8125Q70.8750-20.9531 70.9453-21.2344L70.9453-21.2344Q70.9453-21.3750 70.9453-23.6250L70.9453-23.6250Q71.0156-25.9453 71.0156-28.6875Q71.0156-31.4297 70.9453-33.7500L70.9453-33.7500Q70.9453-36.0703 70.9453-36.2109L70.9453-36.2109Q70.8047-36.7734 70.4180-36.9141Q70.0313-37.0547 68.6953-37.1250L68.6953-37.1250Q67.7109-37.1250 67.3594-37.1953Q67.0078-37.2656 67.0078-37.3359L67.0078-37.3359Q67.0078-37.3359 66.9727-37.3711Q66.9375-37.4063 66.7969-37.4766L66.7969-37.4766Q66.5859-37.5469 66.2695-37.8633Q65.9531-38.1797 65.8828-38.4609L65.8828-38.4609Q65.8125-38.5313 65.7773-38.6016Q65.7422-38.6719 65.7422-38.6719L65.7422-38.6719Q65.6719-38.6719 65.6016-39.3047Q65.5313-39.9375 65.5313-40.7109L65.5313-40.7109Q65.5313-41.3438 65.4961-41.5898Q65.4609-41.8359 65.3906-41.9063L65.3906-41.9063Q65.3906-41.9063 65.3555-41.9766Q65.3203-42.0469 65.3203-42.0469L65.3203-42.0469Q65.3203-42.1172 65.2500-42.1875Q65.1797-42.2578 65.1094-42.3281L65.1094-42.3281L64.8984-42.4688L57.3750-42.4688Q54.2813-42.4688 52.0313-42.4688Q49.7813-42.4688 49.7109-42.4688L49.7109-42.4688ZM37.6172-35.5078L37.6172-35.5078Q37.6875-35.4375 37.7578-35.4023Q37.8281-35.3672 37.8984-35.3672L37.8984-35.3672Q38.0391-35.2969 38.2148-35.1563Q38.3906-35.0156 38.3203-34.9453L38.3203-34.9453Q38.3203-34.8750 38.3203-34.8750Q38.3203-34.8750 38.3906-34.8750L38.3906-34.8750Q38.4609-34.8750 38.5313-34.3828Q38.6016-33.8906 38.6016-32.8359L38.6016-32.8359Q38.6016-31.0078 38.2148-30.6211Q37.8281-30.2344 35.9297-30.2344L35.9297-30.2344Q34.5234-30.2344 34.1719-30.3047Q33.8203-30.3750 33.3984-30.9375L33.3984-30.9375Q33.2578-31.0781 33.2227-32.8359Q33.1875-34.5938 33.3281-34.6641L33.3281-34.6641Q33.3281-34.6641 33.3984-34.7344Q33.4688-34.8047 33.4688-34.9453L33.4688-34.9453Q33.5391-35.0156 33.6094-35.1211Q33.6797-35.2266 33.8203-35.2969L33.8203-35.2969Q33.9609-35.3672 34.0313-35.4023Q34.1016-35.4375 34.1016-35.4375L34.1016-35.4375Q34.2422-35.5781 35.8945-35.5781Q37.5469-35.5781 37.6172-35.5078L37.6172-35.5078ZM7.3828-18.4922L7.3828-18.4922Q7.3828-18.4219 7.3125-18.4219Q7.2422-18.4219 7.1719-18.4219L7.1719-18.4219Q6.6094-18.4219 6.4688-18Q6.3281-17.5781 6.3281-15.9609L6.3281-15.9609Q6.3281-15.2578 6.3281-14.7656Q6.3281-14.2734 6.2578-14.2734L6.2578-14.2734Q6.2578-14.2734 6.2227-14.2031Q6.1875-14.1328 6.1875-13.9922L6.1875-13.9922Q6.1172-13.7813 5.9063-13.5000Q5.6953-13.2188 5.5547-13.2188L5.5547-13.2188Q5.5547-13.2188 5.5195-13.1836Q5.4844-13.1484 5.4844-13.1484L5.4844-13.1484Q5.4141-13.0781 4.9570-13.0430Q4.5000-13.0078 3.3750-13.0078L3.3750-13.0078Q2.5313-13.0078 1.9336-12.9727Q1.3359-12.9375 1.3359-12.9375L1.3359-12.9375Q1.3359-12.9375 1.2656-12.8672Q1.1953-12.7969 1.0547-12.6563L1.0547-12.6563L0.8438-12.4453L0.8438 3.0938L0.9844 3.3047Q1.0547 3.3750 1.1602 3.4453Q1.2656 3.5156 1.3359 3.5156L1.3359 3.5156Q1.3359 3.5156 1.3711 3.5156Q1.4063 3.5156 1.4063 3.5859L1.4063 3.5859Q1.4063 3.5859 3.6563 3.6211Q5.9063 3.6563 10.3359 3.6563L10.3359 3.6563Q14.7656 3.6563 17.0156 3.6211Q19.2656 3.5859 19.2656 3.5859L19.2656 3.5859Q19.2656 3.5156 19.3008 3.5156Q19.3359 3.5156 19.4063 3.5156L19.4063 3.5156Q19.4766 3.5156 19.5820 3.4453Q19.6875 3.3750 19.7578 3.2344L19.7578 3.2344L19.9688 3.0234L19.9688-4.5000Q20.0391-7.6641 20.0391-9.8789Q20.0391-12.0938 20.1094-12.0938L20.1094-12.0938Q20.1094-12.0938 20.1445-12.1641Q20.1797-12.2344 20.1797-12.3047L20.1797-12.3047Q20.2500-12.6563 20.4961-12.7617Q20.7422-12.8672 21.3750-12.9375L21.3750-12.9375Q22.4297-13.0078 22.6406-13.3594Q22.8516-13.7109 22.8516-15.6094L22.8516-15.6094Q22.7813-17.3672 22.6758-17.8242Q22.5703-18.2813 22.0781-18.3516L22.0781-18.3516Q21.9375-18.4219 21.8672-18.4219Q21.7969-18.4219 21.7969-18.4922L21.7969-18.4922Q21.7969-18.4922 19.7227-18.5273Q17.6484-18.5625 14.6250-18.5625L14.6250-18.5625Q11.0391-18.5625 9.2109-18.5273Q7.3828-18.4922 7.3828-18.4922L7.3828-18.4922ZM35.6484-18.4922L35.6484-18.4922Q35.6484-18.4219 35.5430-18.4219Q35.4375-18.4219 35.2969-18.4219L35.2969-18.4219Q34.9453-18.4219 34.2070-18.3164Q33.4688-18.2109 33.3281-18.1406L33.3281-18.1406Q33.2578-18.0703 33.0820-18.0352Q32.9063-18 32.6953-17.9297L32.6953-17.9297Q32.5547-17.9297 32.4141-17.8945Q32.2734-17.8594 32.2734-17.7891L32.2734-17.7891Q32.2734-17.7891 32.1680-17.7539Q32.0625-17.7188 31.9219-17.6484L31.9219-17.6484Q31.7813-17.6484 31.6758-17.6133Q31.5703-17.5781 31.5703-17.5078L31.5703-17.5078Q31.5703-17.5078 31.4648-17.4727Q31.3594-17.4375 31.2188-17.3672L31.2188-17.3672Q31.0781-17.3672 30.9727-17.2969Q30.8672-17.2266 30.8672-17.2266L30.8672-17.2266Q30.8672-17.2266 30.8320-17.1914Q30.7969-17.1563 30.7969-17.2266L30.7969-17.2266Q30.7266-17.2266 30.6914-17.2266Q30.6563-17.2266 30.6563-17.1563L30.6563-17.1563Q30.6563-17.1563 30.5859-17.1211Q30.5156-17.0859 30.4453-17.0156L30.4453-17.0156Q30.3750-17.0156 30.3047-16.9805Q30.2344-16.9453 30.2344-16.8750L30.2344-16.8750Q30.2344-16.8750 30.1641-16.8398Q30.0938-16.8047 29.9531-16.7344L29.9531-16.7344Q29.8828-16.7344 29.8125-16.6641Q29.7422-16.5938 29.7422-16.5938L29.7422-16.5938Q29.7422-16.5938 29.6719-16.5234Q29.6016-16.4531 29.4609-16.3828L29.4609-16.3828Q29.3906-16.3828 29.2148-16.2773Q29.0391-16.1719 28.9688-16.0313L28.9688-16.0313Q28.4766-15.6094 27.8789-15.0117Q27.2813-14.4141 27.2813-14.3438L27.2813-14.3438Q27.2813-14.3438 27.2461-14.3086Q27.2109-14.2734 27.1406-14.2031L27.1406-14.2031Q27.0703-14.2031 27.0703-14.1328Q27.0703-14.0625 27.0703-13.9922L27.0703-13.9922Q27.0703-13.9922 27.0703-13.9570Q27.0703-13.9219 27-13.9219L27-13.9219Q27-13.9219 26.9297-13.8867Q26.8594-13.8516 26.8594-13.7813L26.8594-13.7813Q26.8594-13.7109 26.7891-13.6406Q26.7188-13.5703 26.7188-13.5703L26.7188-13.5703Q26.7188-13.5703 26.6836-13.5000Q26.6484-13.4297 26.5781-13.2891L26.5781-13.2891Q26.5078-13.2188 26.4727-13.1484Q26.4375-13.0781 26.4375-13.0781L26.4375-13.0781Q26.3672-13.0781 26.3320-12.9727Q26.2969-12.8672 26.2266-12.7266L26.2266-12.7266Q26.1563-12.5859 26.1211-12.4805Q26.0859-12.3750 26.0859-12.3750L26.0859-12.3750Q26.0156-12.3750 25.9805-12.2695Q25.9453-12.1641 25.9453-12.0234L25.9453-12.0234Q25.8750-11.8828 25.8398-11.7773Q25.8047-11.6719 25.8047-11.6719L25.8047-11.6719Q25.7344-11.6719 25.6992-11.5664Q25.6641-11.4609 25.5938-11.3203L25.5938-11.3203Q25.5938-11.1797 25.5586-11.0742Q25.5234-10.9688 25.4531-10.9688L25.4531-10.9688Q25.4531-10.9688 25.4531-10.9336Q25.4531-10.8984 25.4531-10.8984L25.4531-10.8984Q25.4531-10.6172 25.3125-9.9141Q25.1719-9.2109 25.1016-9.1406L25.1016-9.1406Q25.0313-9.1406 25.0313-7.4531Q25.0313-5.7656 25.1016-5.7656L25.1016-5.7656Q25.1016-5.6953 25.1719-5.4844Q25.2422-5.2734 25.3125-4.9219L25.3125-4.9219Q25.3125-4.6406 25.3828-4.3945Q25.4531-4.1484 25.4531-4.1484L25.4531-4.1484Q25.5234-4.1484 25.5586-4.0078Q25.5938-3.8672 25.6641-3.6563L25.6641-3.6563Q25.6641-3.5156 25.6992-3.4102Q25.7344-3.3047 25.8047-3.3047L25.8047-3.3047Q25.8047-3.3047 25.8398-3.1992Q25.8750-3.0938 25.9453-2.9531L25.9453-2.9531Q25.9453-2.8125 25.9805-2.7070Q26.0156-2.6016 26.0859-2.6016L26.0859-2.6016Q26.0859-2.6016 26.1563-2.4961Q26.2266-2.3906 26.2266-2.2500L26.2266-2.2500Q26.2969-2.1094 26.3672-2.0039Q26.4375-1.8984 26.4375-1.8984L26.4375-1.8984Q26.4375-1.8984 26.4727-1.8633Q26.5078-1.8281 26.5781-1.7578L26.5781-1.7578Q26.5781-1.6875 26.6133-1.6172Q26.6484-1.5469 26.7188-1.5469L26.7188-1.5469Q26.7188-1.5469 26.7539-1.4766Q26.7891-1.4063 26.8594-1.2656L26.8594-1.2656Q26.9297-1.1953 26.9648-1.0898Q27-0.9844 27.0703-0.9844L27.0703-0.9844Q27.1406-0.9141 27.1758-0.8789Q27.2109-0.8438 27.2109-0.8438L27.2109-0.8438Q27.2109-0.7734 27.3164-0.6680Q27.4219-0.5625 27.5625-0.4219L27.5625-0.4219Q27.7031-0.2813 27.7734-0.1758Q27.8438-0.0703 27.8438 0L27.8438 0Q27.8438 0 28.1250 0.2813Q28.4063 0.5625 28.6172 0.7031L28.6172 0.7031Q28.7578 0.8438 28.8633 0.9141Q28.9688 0.9844 29.0391 1.0547L29.0391 1.0547Q29.0391 1.1250 29.1094 1.1602Q29.1797 1.1953 29.1797 1.1953L29.1797 1.1953Q29.2500 1.1953 29.2852 1.2305Q29.3203 1.2656 29.3906 1.3359L29.3906 1.3359Q29.3906 1.3359 29.4961 1.4063Q29.6016 1.4766 29.6719 1.5469L29.6719 1.5469Q29.8125 1.6172 29.8828 1.6523Q29.9531 1.6875 29.9531 1.6875L29.9531 1.6875Q29.9531 1.7578 29.9883 1.7930Q30.0234 1.8281 30.1641 1.8281L30.1641 1.8281Q30.2344 1.8984 30.2695 1.9336Q30.3047 1.9688 30.3047 1.9688L30.3047 1.9688Q30.3047 1.9688 30.3750 2.0391Q30.4453 2.1094 30.5859 2.1094L30.5859 2.1094Q30.6563 2.1797 30.7617 2.2148Q30.8672 2.2500 30.9375 2.3203L30.9375 2.3203Q30.9375 2.3203 31.0781 2.3906Q31.2188 2.4609 31.3594 2.4609L31.3594 2.4609Q31.5000 2.5313 31.6055 2.5664Q31.7109 2.6016 31.7109 2.6719L31.7109 2.6719Q31.7109 2.6719 31.8164 2.7070Q31.9219 2.7422 32.1328 2.8125L32.1328 2.8125Q32.2734 2.8125 32.4141 2.8477Q32.5547 2.8828 32.5547 2.9531L32.5547 2.9531Q32.5547 2.9531 32.7305 2.9883Q32.9063 3.0234 33.1875 3.0938L33.1875 3.0938Q33.4688 3.1641 33.6445 3.1992Q33.8203 3.2344 33.8203 3.3047L33.8203 3.3047Q33.8906 3.3047 34.0313 3.3398Q34.1719 3.3750 34.3828 3.4453L34.3828 3.4453Q34.5938 3.4453 34.7344 3.5156Q34.8750 3.5859 34.8750 3.5859L34.8750 3.5859Q34.8750 3.5859 34.9102 3.6211Q34.9453 3.6563 34.9453 3.6563L34.9453 3.6563Q35.0156 3.6563 35.0508 3.6211Q35.0859 3.5859 35.0859 3.5859L35.0859 3.5859Q35.0859 3.5156 35.1563 3.5156Q35.2266 3.5156 35.3672 3.4453L35.3672 3.4453Q35.5078 3.4453 35.5781 3.3750Q35.6484 3.3047 35.7188 3.2344L35.7188 3.2344Q35.7891 3.1641 35.8242 3.1289Q35.8594 3.0938 35.8594 3.0234L35.8594 3.0234Q35.9297 3.0234 35.9648 2.4961Q36 1.9688 36 0.9141L36 0.9141Q36-0.0703 36.0352-0.6328Q36.0703-1.1953 36.1406-1.2656L36.1406-1.2656Q36.1406-1.2656 36.2109-1.3359Q36.2813-1.4063 36.2813-1.4766L36.2813-1.4766Q36.3516-1.5469 36.4219-1.6172Q36.4922-1.6875 36.5625-1.6875L36.5625-1.6875Q36.5625-1.6875 36.5977-1.7227Q36.6328-1.7578 36.6328-1.7578L36.6328-1.7578Q36.7031-1.8984 38.6016-1.8984Q40.5000-1.8984 40.6406-1.7578L40.6406-1.7578Q40.8516-1.6172 40.9922-1.4414Q41.1328-1.2656 41.1328-1.1953L41.1328-1.1953Q41.1328-1.1953 41.1328-1.1602Q41.1328-1.1250 41.2031-1.1250L41.2031-1.1250Q41.2734-1.1250 41.3086-0.6328Q41.3438-0.1406 41.3438 1.1953L41.3438 1.1953L41.3438 3.0938L41.5547 3.3047Q41.6250 3.3750 41.6953 3.4453Q41.7656 3.5156 41.8359 3.5156L41.8359 3.5156Q41.9063 3.5156 41.9414 3.5156Q41.9766 3.5156 41.9766 3.5859L41.9766 3.5859Q41.9766 3.5859 42.5039 3.6211Q43.0313 3.6563 44.0859 3.6563L44.0859 3.6563Q44.9297 3.6563 45.5273 3.6211Q46.1250 3.5859 46.1250 3.5859L46.1250 3.5859Q46.1250 3.5156 46.1953 3.5156Q46.2656 3.5156 46.3359 3.4453L46.3359 3.4453Q46.5469 3.4453 46.6875 3.2695Q46.8281 3.0938 46.8281 2.8828L46.8281 2.8828Q46.8281 2.8125 46.8281 2.7773Q46.8281 2.7422 46.8984 2.7422L46.8984 2.7422Q46.8984 2.7422 46.9336 1.5469Q46.9688 0.3516 46.9688-1.9688L46.9688-1.9688Q46.9688-3.9375 46.9336-5.3438Q46.8984-6.7500 46.8984-6.7500L46.8984-6.7500Q46.8281-6.7500 46.7930-6.8203Q46.7578-6.8906 46.7578-6.9609L46.7578-6.9609Q46.6875-7.1719 46.4766-7.2773Q46.2656-7.3828 45.9141-7.3828L45.9141-7.3828Q45.8438-7.3828 45.7734-7.4180Q45.7031-7.4531 45.7031-7.4531L45.7031-7.4531Q45.7031-7.4531 44.5781-7.4883Q43.4531-7.5234 41.3438-7.5234L41.3438-7.5234Q39.1641-7.5234 38.0391-7.4883Q36.9141-7.4531 36.9141-7.4531L36.9141-7.4531Q36.9141-7.4531 36.8438-7.4180Q36.7734-7.3828 36.7031-7.3828L36.7031-7.3828Q36.5625-7.3828 36.4570-7.3477Q36.3516-7.3125 36.2109-7.1719L36.2109-7.1719L35.9297-6.9609L35.9297-5.5547Q35.9297-4.9922 35.8945-4.5703Q35.8594-4.1484 35.8594-4.1484L35.8594-4.1484Q35.8594-4.1484 35.8242-4.0430Q35.7891-3.9375 35.7891-3.7969L35.7891-3.7969Q35.7188-3.3750 35.6133-3.1992Q35.5078-3.0234 35.3672-2.8828L35.3672-2.8828Q35.2969-2.8828 35.1914-2.8125Q35.0859-2.7422 35.0156-2.6719L35.0156-2.6719Q34.8750-2.5313 34.2422-2.4961Q33.6094-2.4609 33.4688-2.6719L33.4688-2.6719Q33.3984-2.6719 33.2930-2.7422Q33.1875-2.8125 33.1172-2.8125L33.1172-2.8125Q32.9766-2.8828 32.8711-2.9531Q32.7656-3.0234 32.7656-3.0234L32.7656-3.0234Q32.7656-3.0938 32.7305-3.1289Q32.6953-3.1641 32.6250-3.1641L32.6250-3.1641Q32.5547-3.1641 32.0625-3.6563Q31.5703-4.1484 31.5703-4.2891L31.5703-4.2891Q31.5703-4.2891 31.5352-4.3242Q31.5000-4.3594 31.5000-4.3594L31.5000-4.3594Q31.4297-4.3594 31.3945-4.4297Q31.3594-4.5000 31.2891-4.5703L31.2891-4.5703Q31.2188-4.7109 31.1836-4.7813Q31.1484-4.8516 31.0781-4.8516L31.0781-4.8516Q31.0781-4.8516 31.0430-4.9570Q31.0078-5.0625 30.9375-5.1328L30.9375-5.1328Q30.9375-5.2734 30.9023-5.3438Q30.8672-5.4141 30.7969-5.4141L30.7969-5.4141Q30.7969-5.4141 30.6914-5.8359Q30.5859-6.2578 30.5859-6.4688L30.5859-6.4688Q30.5859-6.5391 30.5859-6.6094Q30.5859-6.6797 30.5156-6.6797L30.5156-6.6797Q30.5156-6.6797 30.4805-6.8906Q30.4453-7.1016 30.4453-7.4531L30.4453-7.4531Q30.4453-7.8750 30.4805-8.0859Q30.5156-8.2969 30.5156-8.2969L30.5156-8.2969Q30.5859-8.2969 30.5859-8.3672Q30.5859-8.4375 30.5859-8.5078L30.5859-8.5078Q30.5859-8.7188 30.6914-9.1055Q30.7969-9.4922 30.7969-9.5625L30.7969-9.5625Q30.7969-9.5625 30.8672-9.6328Q30.9375-9.7031 30.9375-9.8438L30.9375-9.8438Q31.0078-9.9141 31.0430-10.0195Q31.0781-10.1250 31.0781-10.1250L31.0781-10.1250Q31.1484-10.1250 31.1836-10.2305Q31.2188-10.3359 31.2891-10.4063L31.2891-10.4063Q31.3594-10.6172 31.9570-11.2500Q32.5547-11.8828 32.6953-11.8828L32.6953-11.8828Q32.6953-11.8828 32.7656-11.9531Q32.8359-12.0234 32.9063-12.0938L32.9063-12.0938Q33.0469-12.1641 33.1523-12.2344Q33.2578-12.3047 33.3984-12.3750L33.3984-12.3750Q33.4688-12.3750 33.5742-12.4453Q33.6797-12.5156 33.7500-12.5156L33.7500-12.5156Q33.7500-12.5859 33.8906-12.6211Q34.0313-12.6563 34.1719-12.6563L34.1719-12.6563Q34.2422-12.7266 34.3477-12.7617Q34.4531-12.7969 34.5234-12.7969L34.5234-12.7969Q34.5234-12.8672 35.8945-12.9023Q37.2656-12.9375 40.4297-12.9375L40.4297-12.9375Q45.4219-12.9375 46.0195-13.0078Q46.6172-13.0781 46.7578-13.5000L46.7578-13.5000Q46.7578-13.6406 46.7930-13.7109Q46.8281-13.7813 46.8984-13.7813L46.8984-13.7813Q46.8984-13.7813 46.9336-14.3438Q46.9688-14.9063 46.9688-15.7500L46.9688-15.7500Q46.9688-16.6641 46.9336-17.1563Q46.8984-17.6484 46.8984-17.6484L46.8984-17.6484Q46.8281-17.6484 46.8281-17.6836Q46.8281-17.7188 46.8281-17.7891L46.8281-17.7891Q46.8281-18 46.5820-18.2109Q46.3359-18.4219 46.0547-18.4219L46.0547-18.4219Q45.9844-18.4219 45.9141-18.4219Q45.8438-18.4219 45.8438-18.4922L45.8438-18.4922Q45.8438-18.4922 44.5430-18.5273Q43.2422-18.5625 40.7813-18.5625L40.7813-18.5625Q38.2500-18.5625 36.9492-18.5273Q35.6484-18.4922 35.6484-18.4922L35.6484-18.4922ZM59.5547-18.4922L59.5547-18.4922Q59.5547-18.4219 59.4844-18.4219Q59.4141-18.4219 59.2734-18.3516L59.2734-18.3516Q58.9219-18.2813 58.7813-18.0703Q58.6406-17.8594 58.5703-17.1563L58.5703-17.1563Q58.5703-16.8047 58.5352-16.5586Q58.5000-16.3125 58.5000-16.3125L58.5000-16.3125Q58.4297-16.3125 58.3945-16.2422Q58.3594-16.1719 58.3594-16.1016L58.3594-16.1016Q58.2188-15.8906 57.7266-15.8555Q57.2344-15.8203 54.0703-15.8203L54.0703-15.8203Q50.4844-15.8203 49.8516-15.7148Q49.2188-15.6094 49.1484-15.0469L49.1484-15.0469Q49.0781-14.9766 49.0781-14.8711Q49.0781-14.7656 49.0078-14.7656L49.0078-14.7656Q48.9375-14.7656 48.9375-10.6875Q48.9375-6.6094 49.0078-6.6094L49.0078-6.6094Q49.0078-6.5391 49.0781-6.2930Q49.1484-6.0469 49.2188-5.6953L49.2188-5.6953Q49.2188-5.3438 49.2891-5.0625Q49.3594-4.7813 49.3594-4.7813L49.3594-4.7813Q49.4297-4.7109 49.4648-4.6055Q49.5000-4.5000 49.5000-4.2891L49.5000-4.2891Q49.5703-4.0781 49.7109-3.6211Q49.8516-3.1641 49.9922-3.1641L49.9922-3.1641Q49.9922-3.0938 50.0273-2.9883Q50.0625-2.8828 50.1328-2.8125L50.1328-2.8125Q50.1328-2.6719 50.1680-2.5664Q50.2031-2.4609 50.2734-2.4609L50.2734-2.4609Q50.2734-2.4609 50.3086-2.4258Q50.3438-2.3906 50.2734-2.3906L50.2734-2.3906Q50.2734-2.3203 50.2734-2.2852Q50.2734-2.2500 50.3438-2.2500L50.3438-2.2500Q50.3438-2.2500 50.3789-2.2148Q50.4141-2.1797 50.4141-2.1797L50.4141-2.1797Q50.4141-2.1094 50.4492-2.0391Q50.4844-1.9688 50.5547-1.8984L50.5547-1.8984Q50.6250-1.8281 50.6602-1.7578Q50.6953-1.6875 50.6953-1.6172L50.6953-1.6172Q50.7656-1.4766 50.8008-1.4063Q50.8359-1.3359 50.8359-1.3359L50.8359-1.3359Q50.9063-1.3359 50.9766-1.2656Q51.0469-1.1953 51.0469-1.0547L51.0469-1.0547Q51.1875-0.8438 51.4336-0.5625Q51.6797-0.2813 52.2422 0.2813L52.2422 0.2813Q53.0156 1.0547 53.2969 1.3008Q53.5781 1.5469 53.7891 1.6172L53.7891 1.6172Q53.8594 1.6172 53.8945 1.6523Q53.9297 1.6875 53.9297 1.6875L53.9297 1.6875Q53.9297 1.6875 54 1.7578Q54.0703 1.8281 54.2109 1.8281L54.2109 1.8281Q54.2813 1.8984 54.3516 1.9336Q54.4219 1.9688 54.4219 1.9688L54.4219 1.9688Q54.4219 2.0391 54.4922 2.0742Q54.5625 2.1094 54.6328 2.1094L54.6328 2.1094Q54.7031 2.1094 54.7734 2.1797Q54.8438 2.2500 54.8438 2.2500L54.8438 2.2500Q54.8438 2.2500 54.9844 2.3203Q55.1250 2.3906 55.2656 2.4609L55.2656 2.4609Q55.4766 2.5313 55.6172 2.6016Q55.7578 2.6719 55.7578 2.6719L55.7578 2.6719Q55.8281 2.7422 55.9336 2.7773Q56.0391 2.8125 56.1094 2.8125L56.1094 2.8125Q56.2500 2.8125 56.3203 2.8477Q56.3906 2.8828 56.3906 2.9531L56.3906 2.9531Q56.3906 2.9531 56.4258 2.9531Q56.4609 2.9531 56.4609 2.9531L56.4609 2.9531Q56.6016 2.9531 56.9883 3.0938Q57.3750 3.2344 57.3750 3.3047L57.3750 3.3047Q57.3750 3.3047 57.6211 3.3398Q57.8672 3.3750 58.1484 3.4453L58.1484 3.4453Q58.5000 3.4453 58.7109 3.5156Q58.9219 3.5859 58.9219 3.5859L58.9219 3.5859Q58.9219 3.5859 60.5742 3.6211Q62.2266 3.6563 64.6172 3.6563L64.6172 3.6563Q67.2891 3.6563 68.7656 3.6211Q70.2422 3.5859 70.2422 3.5859L70.2422 3.5859Q70.2422 3.5156 70.2773 3.5156Q70.3125 3.5156 70.3828 3.5156L70.3828 3.5156Q70.4531 3.5156 70.5586 3.4453Q70.6641 3.3750 70.7344 3.2344L70.7344 3.2344L70.9453 3.0234L70.9453-3.6563Q71.0156-6.3984 70.9805-8.5078Q70.9453-10.6172 70.9453-10.7578L70.9453-10.7578Q70.9453-11.0391 70.7695-11.2500Q70.5938-11.4609 70.3828-11.4609L70.3828-11.4609Q70.3125-11.4609 70.2773-11.4961Q70.2422-11.5313 70.2422-11.5313L70.2422-11.5313Q70.2422-11.6016 69.5742-11.6016Q68.9063-11.6016 67.5703-11.6016L67.5703-11.6016Q65.2500-11.6016 64.8281-11.6719Q64.4063-11.7422 64.2656-12.0234L64.2656-12.0234Q64.2656-12.1641 64.2305-12.9727Q64.1953-13.7813 64.1953-14.8359L64.1953-14.8359Q64.1953-16.1016 64.1953-16.7344Q64.1953-17.3672 64.1250-17.3672L64.1250-17.3672Q64.1250-17.3672 64.0898-17.4375Q64.0547-17.5078 64.0547-17.5781L64.0547-17.5781Q64.0547-17.9297 63.8438-18.1758Q63.6328-18.4219 63.3516-18.4219L63.3516-18.4219Q63.2813-18.4219 63.2109-18.4219Q63.1406-18.4219 63.1406-18.4922L63.1406-18.4922Q63.1406-18.4922 62.6836-18.5273Q62.2266-18.5625 61.3125-18.5625L61.3125-18.5625Q60.6094-18.5625 60.0820-18.5273Q59.5547-18.4922 59.5547-18.4922L59.5547-18.4922ZM13.9922-12.7969L13.9922-12.7969Q13.9922-12.7969 14.0625-12.7617Q14.1328-12.7266 14.2031-12.6563L14.2031-12.6563Q14.2734-12.6563 14.3086-12.5859Q14.3438-12.5156 14.3438-12.4453L14.3438-12.4453Q14.4141-12.3047 14.4492-12.2695Q14.4844-12.2344 14.4844-12.2344L14.4844-12.2344Q14.4844-12.2344 14.5195-11.8477Q14.5547-11.4609 14.5547-10.8984L14.5547-10.8984Q14.5547-10.2656 14.5195-9.9141Q14.4844-9.5625 14.4844-9.5625L14.4844-9.5625Q14.4141-9.5625 14.4141-9.5273Q14.4141-9.4922 14.4141-9.4219L14.4141-9.4219Q14.4141-9.3516 14.3438-9.2813Q14.2734-9.2109 14.2734-9.1406L14.2734-9.1406L14.0625-8.9297L10.4766-8.9297Q8.2969-8.9297 7.5586-8.9648Q6.8203-9 6.8203-9L6.8203-9Q6.7500-9.0703 6.7148-9.1055Q6.6797-9.1406 6.6797-9.1406L6.6797-9.1406Q6.3984-9.1406 6.3984-10.2305Q6.3984-11.3203 6.6094-11.3906L6.6094-11.3906Q6.6797-11.3906 6.6797-11.4258Q6.6797-11.4609 6.6797-11.5313L6.6797-11.5313Q6.6797-11.5313 6.7148-11.6016Q6.7500-11.6719 6.8203-11.7422L6.8203-11.7422Q6.8906-11.7422 6.9609-11.8477Q7.0313-11.9531 7.0313-12.0234L7.0313-12.0234Q7.1016-12.0938 7.2070-12.1641Q7.3125-12.2344 7.3828-12.3047L7.3828-12.3047Q7.5234-12.3750 7.5938-12.4453Q7.6641-12.5156 7.6641-12.5156L7.6641-12.5156Q7.6641-12.5156 7.7344-12.5508Q7.8047-12.5859 7.8750-12.6563L7.8750-12.6563Q8.0156-12.6563 8.0859-12.7266Q8.1563-12.7969 8.1563-12.7969L8.1563-12.7969Q8.1563-12.9375 11.0039-12.9375Q13.8516-12.9375 13.9922-12.7969L13.9922-12.7969ZM58.3594-9.8438L58.3594-9.8438L58.5703-9.6328L58.6406-8.3672Q58.6406-7.8047 58.6758-7.3828Q58.7109-6.9609 58.7109-6.8906L58.7109-6.8906Q58.7813-6.7500 59.0625-6.5039Q59.3438-6.2578 59.5547-6.2578L59.5547-6.2578Q59.6250-6.2578 59.6953-6.2227Q59.7656-6.1875 59.6953-6.1172L59.6953-6.1172Q59.6953-6.1172 60.3633-6.1172Q61.0313-6.1172 62.0156-6.1172L62.0156-6.1172Q63.7734-6.0469 64.3711-6.0117Q64.9688-5.9766 64.9688-5.9063L64.9688-5.9063Q65.0391-5.8359 65.0742-5.8008Q65.1094-5.7656 65.1094-5.7656L65.1094-5.7656Q65.1797-5.7656 65.2148-5.7656Q65.2500-5.7656 65.2500-5.6953L65.2500-5.6953Q65.2500-5.6953 65.2852-5.6250Q65.3203-5.5547 65.3906-5.5547L65.3906-5.5547Q65.4609-5.4141 65.4961-4.0430Q65.5313-2.6719 65.3906-2.6016L65.3906-2.6016Q65.3906-2.5313 65.3555-2.4961Q65.3203-2.4609 65.2500-2.3906L65.2500-2.3906Q65.2500-2.3203 65.2148-2.2852Q65.1797-2.2500 65.1094-2.2500L65.1094-2.2500Q65.0391-2.1797 65.0039-2.1445Q64.9688-2.1094 64.8984-2.1094L64.8984-2.1094Q64.8984-2.0391 61.9805-2.0391Q59.0625-2.0391 58.9922-2.1094L58.9922-2.1094Q58.9922-2.1094 58.8516-2.1445Q58.7109-2.1797 58.5000-2.2500L58.5000-2.2500Q58.3594-2.2500 58.1836-2.3203Q58.0078-2.3906 58.0078-2.4609L58.0078-2.4609Q57.9375-2.4609 57.8672-2.5313Q57.7969-2.6016 57.6563-2.6016L57.6563-2.6016Q57.5859-2.6016 57.5156-2.6367Q57.4453-2.6719 57.4453-2.6719L57.4453-2.6719Q57.3750-2.7422 57.3047-2.7773Q57.2344-2.8125 57.0938-2.8828L57.0938-2.8828Q57.0234-2.9531 56.9180-3.0234Q56.8125-3.0938 56.8125-3.0938L56.8125-3.0938Q56.7422-3.1641 56.7070-3.1992Q56.6719-3.2344 56.6719-3.2344L56.6719-3.2344Q56.6016-3.2344 56.2148-3.6211Q55.8281-4.0078 55.8281-4.0078L55.8281-4.0078Q55.8281-4.0781 55.7930-4.1133Q55.7578-4.1484 55.6875-4.2188L55.6875-4.2188Q55.6172-4.2188 55.5820-4.3242Q55.5469-4.4297 55.4766-4.4297L55.4766-4.4297Q55.3359-4.6406 55.0898-5.0977Q54.8438-5.5547 54.8438-5.7656L54.8438-5.7656Q54.7734-5.9063 54.7383-5.9766Q54.7031-6.0469 54.7031-6.1172L54.7031-6.1172Q54.6328-6.1172 54.6328-6.5391Q54.6328-6.9609 54.6328-7.8750L54.6328-7.8750L54.6328-9.6328L54.7734-9.8438Q54.9844-10.0547 55.2305-10.0898Q55.4766-10.1250 56.6719-10.1250L56.6719-10.1250L58.1484-10.0547L58.3594-9.8438ZM14.0625-4.6406L14.0625-4.6406Q14.0625-4.6406 14.0977-4.6055Q14.1328-4.5703 14.2734-4.5703L14.2734-4.5703Q14.5547-4.5703 15.0469-4.2539Q15.5391-3.9375 15.5391-3.7266L15.5391-3.7266Q15.5391-3.7266 15.5742-3.6563Q15.6094-3.5859 15.6797-3.5156L15.6797-3.5156Q15.8203-3.4453 15.8203-2.6719Q15.8203-1.8984 15.7500-1.8281L15.7500-1.8281Q15.6797-1.8281 15.6445-1.7578Q15.6094-1.6875 15.5391-1.6172L15.5391-1.6172Q15.4688-1.4063 15.2930-1.2305Q15.1172-1.0547 15.0469-1.0547L15.0469-1.0547Q15.0469-1.0547 14.9766-1.0195Q14.9063-0.9844 14.9063-0.9141L14.9063-0.9141Q14.9063-0.8438 14.8711-0.8438Q14.8359-0.8438 14.8359-0.8438L14.8359-0.8438Q14.8359-0.9141 14.8008-0.8789Q14.7656-0.8438 14.6953-0.8438L14.6953-0.8438Q14.5547-0.7031 10.4063-0.7031Q6.2578-0.7031 6.1875-0.8438L6.1875-0.8438Q6.1875-0.8438 6.1523-0.8438Q6.1172-0.8438 6.1172-0.8438L6.1172-0.8438Q6.1172-0.8438 6.0820-0.8438Q6.0469-0.8438 6.0469-0.9141L6.0469-0.9141Q6.0469-0.9141 5.9766-0.9492Q5.9063-0.9844 5.8359-0.9844L5.8359-0.9844Q5.6953-1.0547 5.6250-1.1250Q5.5547-1.1953 5.4844-1.2656L5.4844-1.2656Q5.4844-1.4063 5.4141-1.4766Q5.3438-1.5469 5.2734-1.6172L5.2734-1.6172Q5.2734-1.6172 5.2031-1.7578Q5.1328-1.8984 5.1328-1.9688L5.1328-1.9688Q5.1328-2.1094 5.0977-2.1797Q5.0625-2.2500 5.0625-2.2500L5.0625-2.2500Q4.9922-2.2500 4.9922-2.3555Q4.9922-2.4609 4.9922-2.6016L4.9922-2.6016Q4.9922-2.7422 4.9922-2.8477Q4.9922-2.9531 5.0625-2.9531L5.0625-2.9531Q5.0625-2.9531 5.0977-3.0234Q5.1328-3.0938 5.1328-3.1641L5.1328-3.1641Q5.1328-3.3047 5.2031-3.5508Q5.2734-3.7969 5.3438-3.7969L5.3438-3.7969Q5.3438-3.7969 5.3789-3.8320Q5.4141-3.8672 5.4844-3.9375L5.4844-3.9375Q5.4844-4.0078 5.5547-4.0781Q5.6250-4.1484 5.6250-4.1484L5.6250-4.1484Q5.6953-4.1484 5.7305-4.1836Q5.7656-4.2188 5.8359-4.2891L5.8359-4.2891Q5.8359-4.3594 5.9766-4.3945Q6.1172-4.4297 6.3281-4.5000L6.3281-4.5000Q6.5391-4.5703 6.6445-4.6055Q6.7500-4.6406 6.7500-4.6406L6.7500-4.6406Q6.7500-4.7109 7.8398-4.7109Q8.9297-4.7109 10.4063-4.7109L10.4063-4.7109Q12.1641-4.7109 13.1133-4.7109Q14.0625-4.7109 14.0625-4.6406L14.0625-4.6406Z" />
        </symbol>
    </defs>
</svg>
